<svg version="1.1" id="Layer_1" xmlns="http://www.w3.org/2000/svg" xmlns:xlink="http://www.w3.org/1999/xlink" x="0px" y="0px"
	 width="100%" viewBox="0 0 2334 1014" enable-background="new 0 0 2334 1014" xml:space="preserve">
<path fill="#FFFFFF" opacity="1.000000" stroke="none" 
	d="
M1.000000,486.000000 
	C1.000000,324.379608 1.000000,162.759186 1.000000,1.000000 
	C323.694702,1.000000 646.389404,1.000000 969.522278,1.468302 
	C969.958313,13.933057 969.719238,25.935209 970.007690,37.924671 
	C970.480042,57.556286 970.092468,77.311684 972.228943,96.777649 
	C976.086792,131.927979 990.377136,162.705734 1016.107056,187.442780 
	C1024.919678,195.915314 1034.801392,203.275940 1044.143066,211.101410 
	C1039.342163,214.648727 1033.841431,218.393753 1028.691772,222.571442 
	C1000.979675,245.053543 982.954529,273.600677 974.864075,308.457825 
	C968.802917,334.571869 969.987244,361.063721 970.113953,387.517883 
	C970.115234,387.792267 970.409973,388.065277 970.593079,388.382843 
	C988.115112,388.382843 1005.643066,388.382843 1023.578064,388.382843 
	C1023.578064,382.158478 1023.320435,376.338074 1023.627625,370.547607 
	C1024.464111,354.782104 1024.024414,338.753021 1026.837158,323.329315 
	C1032.585327,291.808624 1051.207886,269.136230 1078.951172,253.267853 
	C1103.064453,239.475739 1128.936157,235.000488 1155.955200,238.152802 
	C1173.216553,240.166656 1189.416748,246.830780 1204.293091,256.044617 
	C1230.258179,272.126404 1247.573242,294.820251 1251.973633,325.244110 
	C1254.674072,343.914551 1254.084595,363.061676 1254.945312,381.996002 
	C1255.040894,384.101135 1254.958130,386.214355 1254.958130,388.385193 
	C1273.256958,388.385193 1290.958374,388.385193 1309.692261,388.385193 
	C1308.804199,367.659332 1308.885010,347.289124 1306.866577,327.129120 
	C1302.813477,286.648621 1285.191650,252.758865 1254.134277,226.199356 
	C1247.715088,220.709854 1240.770386,215.834854 1233.713745,210.404175 
	C1235.570679,209.162979 1237.328369,208.006256 1239.067871,206.822845 
	C1266.727173,188.004745 1286.817261,163.263199 1298.415649,131.698334 
	C1306.108154,110.763519 1308.571411,89.033501 1308.850220,66.975586 
	C1309.128052,44.986603 1308.968018,22.992088 1309.000000,1.000000 
	C1650.910034,1.000000 1992.820190,1.000000 2335.000000,1.000000 
	C2335.000000,186.027954 2335.000000,371.056030 2334.631348,556.529785 
	C2329.538818,555.408875 2324.913330,553.373962 2320.073730,552.359192 
	C2301.979004,548.565491 2289.179443,554.957397 2281.063477,571.402283 
	C2280.623779,572.293457 2280.031738,573.109558 2278.706543,575.273499 
	C2278.706543,567.803345 2278.706543,561.874939 2278.706543,556.062500 
	C2268.818604,556.062500 2259.389404,556.062500 2249.843750,556.062500 
	C2249.843750,598.959412 2249.843750,641.521118 2249.843750,684.329041 
	C2259.621582,684.329041 2269.047119,684.329041 2279.007812,684.329041 
	C2279.007812,682.294983 2279.006836,680.513367 2279.008057,678.731750 
	C2279.019531,660.068726 2278.598633,641.391235 2279.222412,622.748657 
	C2279.542480,613.186035 2280.878174,603.464783 2283.283447,594.212585 
	C2286.419434,582.149353 2295.135498,576.355347 2307.560547,577.187195 
	C2313.216553,577.565918 2318.761475,579.607544 2324.893311,581.018372 
	C2325.396973,579.869080 2326.217773,577.909119 2327.107910,575.981079 
	C2329.723877,570.313904 2332.367188,564.659424 2335.000000,559.000000 
	C2335.000000,710.964905 2335.000000,862.929749 2335.000000,1015.000000 
	C1886.971924,1015.000000 1438.943970,1015.000000 990.487183,1014.603699 
	C991.834961,1013.782288 993.673096,1013.526123 995.378418,1012.905396 
	C1009.933472,1007.606689 1020.803467,998.583374 1022.818665,982.387146 
	C1024.859619,965.984009 1017.272278,954.195251 1003.082764,946.339172 
	C1002.473755,946.002075 1001.928284,945.550110 1000.933289,944.860535 
	C1012.453186,938.931213 1019.997070,930.609863 1021.497131,917.886658 
	C1022.991943,905.207581 1017.733215,895.450806 1007.068909,887.568726 
	C1022.169617,888.535034 1023.219177,887.831848 1025.162598,875.900513 
	C1023.787415,876.157715 1022.518066,876.325500 1021.284912,876.636536 
	C1009.757385,879.543701 998.170959,881.068054 986.187744,880.031311 
	C980.309082,879.522644 974.104919,879.861145 968.365112,881.187805 
	C948.148682,885.860596 936.563354,904.792358 942.028320,923.411743 
	C944.701111,932.518250 950.972046,938.759094 958.869690,943.725281 
	C957.487610,947.567139 956.174805,951.216614 954.668518,955.403809 
	C959.134399,953.928528 962.803650,952.448792 966.606262,951.507812 
	C981.077026,947.926941 994.509277,949.360229 1005.211853,960.925598 
	C1015.284424,971.810059 1014.030823,987.550476 1002.363342,996.579468 
	C990.149780,1006.031128 976.448975,1007.188354 962.919800,1000.615845 
	C956.013306,997.260620 950.437805,991.165588 943.705139,985.872131 
	C941.664978,987.220337 938.561096,989.271484 935.377686,991.375183 
	C942.206970,1001.681702 951.008545,1008.695679 962.251099,1012.613220 
	C964.504395,1013.398376 966.750549,1014.203918 969.000000,1015.000000 
	C646.436768,1015.000000 323.873535,1015.000000 1.000000,1015.000000 
	C1.000000,905.305481 1.000000,795.610718 1.441460,685.284058 
	C12.171708,684.652283 22.460497,684.652283 33.347878,684.652283 
	C33.347878,652.097656 33.347878,620.208679 33.347878,588.426758 
	C66.190086,588.426758 98.423729,588.426758 131.070160,588.426758 
	C131.070160,620.546814 131.070160,652.304810 131.070160,684.273315 
	C141.901581,684.273315 152.315430,684.273315 162.781937,684.273315 
	C162.781937,618.073181 162.781937,552.190613 162.781937,486.310974 
	C152.025162,486.310974 141.629868,486.310974 130.744751,486.310974 
	C130.744751,510.720123 130.744751,534.790466 130.744751,558.761902 
	C98.013527,558.761902 65.780693,558.761902 32.987793,558.761902 
	C32.987793,534.354065 32.987793,510.303955 32.987793,486.000000 
	C21.951138,486.000000 11.475569,486.000000 1.000000,486.000000 
M1693.223877,881.274048 
	C1693.223877,881.274048 1692.902832,880.910645 1692.904419,880.151855 
	C1692.308594,879.636292 1691.716553,878.676819 1691.116211,878.671570 
	C1681.570435,878.586792 1673.018433,881.395508 1666.266357,888.317505 
	C1662.978027,891.688538 1660.271851,895.627380 1656.866211,899.849609 
	C1656.866211,893.194092 1656.866211,886.999878 1656.866211,880.404358 
	C1652.918701,880.872925 1649.522339,881.276062 1646.337646,881.654053 
	C1646.337646,914.677612 1646.337646,947.207947 1646.337646,979.832336 
	C1649.993896,979.343079 1653.246948,978.907776 1656.910767,978.417480 
	C1656.910767,964.641663 1656.425049,951.160400 1657.084106,937.735413 
	C1657.512085,929.015930 1658.865356,920.177307 1661.141846,911.753601 
	C1664.162476,900.576294 1671.869995,893.347168 1683.250854,890.145752 
	C1686.334106,889.278381 1689.154419,887.475769 1692.537109,885.896118 
	C1691.944702,885.188599 1692.331787,885.527161 1692.567505,885.950073 
	C1706.233032,910.473877 1719.924805,934.983398 1733.436523,959.591797 
	C1734.186768,960.958130 1734.008301,963.423340 1733.292847,964.911194 
	C1728.111694,975.686707 1722.672852,986.338135 1717.333496,997.037842 
	C1715.067383,1001.579163 1712.844116,1006.141968 1710.383057,1011.138428 
	C1714.235718,1012.203308 1717.524292,1013.112305 1721.045166,1014.085510 
	C1742.779663,970.143494 1764.402588,926.427124 1786.114868,882.529968 
	C1784.192017,881.954590 1782.532715,881.663818 1781.057739,880.976929 
	C1777.079590,879.124390 1774.960449,880.369263 1773.194946,884.356384 
	C1769.702759,892.242920 1765.688965,899.899292 1761.862549,907.636780 
	C1754.878662,921.759033 1747.874146,935.870972 1740.668579,950.410461 
	C1727.432617,926.556946 1714.477051,903.208740 1701.456177,879.742798 
	C1698.596802,880.439697 1696.037231,881.063477 1693.223877,881.274048 
M1293.082031,516.404968 
	C1323.506836,505.970459 1351.076050,509.202576 1374.138672,533.816467 
	C1382.054321,527.829956 1389.667969,522.071838 1397.411011,516.215942 
	C1379.304688,494.306366 1356.656982,482.901825 1329.003052,481.736359 
	C1291.988403,480.176361 1260.345459,491.733856 1237.039795,521.509705 
	C1217.309448,546.717468 1212.709595,575.963745 1218.218506,606.668640 
	C1224.592041,642.192566 1243.885742,668.436218 1278.036011,682.135132 
	C1298.931641,690.517212 1320.833130,691.422424 1342.933228,688.313171 
	C1360.109131,685.896729 1375.763550,679.836182 1388.735229,667.918152 
	C1405.712646,652.319885 1412.592529,632.236938 1413.876709,609.895447 
	C1414.387207,601.011353 1413.960449,592.073364 1413.960449,583.238098 
	C1387.064697,583.238098 1361.162109,583.238098 1335.331299,583.238098 
	C1335.331299,592.337952 1335.331299,601.069397 1335.331299,610.270996 
	C1351.276001,610.270996 1366.862793,610.270996 1382.675903,610.270996 
	C1382.940552,624.519531 1379.297729,636.691895 1368.795288,646.225403 
	C1358.295288,655.756836 1345.482300,659.436340 1331.770020,660.529419 
	C1306.493530,662.544250 1284.104004,656.338013 1267.076294,636.398438 
	C1252.942993,619.848450 1248.732422,600.052673 1250.188599,578.954529 
	C1252.173950,550.190979 1265.600220,528.852661 1293.082031,516.404968 
M1767.636719,619.497070 
	C1767.636719,641.087402 1767.636719,662.677673 1767.636719,684.357910 
	C1777.828003,684.357910 1787.270264,684.357910 1797.292480,684.357910 
	C1797.292480,682.347839 1797.292114,680.563538 1797.292480,678.779236 
	C1797.295166,661.786560 1797.120117,644.791260 1797.378540,627.802429 
	C1797.502197,619.664429 1797.952515,611.467468 1799.116699,603.421814 
	C1802.106445,582.759766 1815.319580,573.437378 1835.846313,576.747192 
	C1844.376343,578.122681 1850.050415,582.799316 1851.737305,591.121399 
	C1853.249146,598.580017 1854.215942,606.263000 1854.348145,613.865662 
	C1854.721680,635.349976 1854.543457,656.843811 1854.581665,678.333923 
	C1854.585205,680.270508 1854.582275,682.207092 1854.582275,684.309814 
	C1864.700073,684.309814 1874.122925,684.309814 1883.427002,684.309814 
	C1883.684204,683.742371 1883.933472,683.449768 1883.933105,683.157349 
	C1883.896362,651.008301 1884.354980,618.847046 1883.592407,586.714783 
	C1883.139404,567.626038 1871.326538,555.264709 1852.964478,552.164246 
	C1831.989258,548.622559 1814.125000,554.412903 1799.787598,570.376099 
	C1798.096802,572.258484 1796.408936,574.143372 1794.420898,576.360291 
	C1786.192505,557.250488 1771.284180,550.704285 1752.306763,551.160950 
	C1733.580933,551.611450 1719.257202,560.237305 1708.741455,575.925171 
	C1708.414307,575.593750 1708.087158,575.262390 1707.760010,574.930969 
	C1707.760010,568.677185 1707.760010,562.423340 1707.760010,556.156250 
	C1698.531128,556.156250 1689.748413,556.156250 1680.690674,556.156250 
	C1680.690674,598.913147 1680.690674,641.452942 1680.690674,684.200867 
	C1690.576782,684.200867 1700.115112,684.200867 1709.939331,684.200867 
	C1709.939331,674.491394 1709.837280,665.172180 1709.961182,655.855896 
	C1710.193726,638.376282 1710.060547,620.870850 1711.026855,603.428711 
	C1711.770264,590.009827 1719.810303,581.182068 1732.569458,577.682312 
	C1748.813110,573.226685 1763.284668,577.689453 1765.995605,598.111389 
	C1766.891357,604.860168 1767.107910,611.699097 1767.636719,619.497070 
M1514.301880,587.885376 
	C1506.560303,609.734741 1506.641968,631.707336 1514.202026,653.468750 
	C1529.377075,697.149780 1586.027100,699.787354 1607.070312,671.457153 
	C1607.649902,670.676880 1608.572510,670.151550 1610.084229,668.874817 
	C1610.084229,674.653564 1610.084229,679.406311 1610.084229,684.272705 
	C1619.931641,684.272705 1629.346924,684.272705 1638.826660,684.272705 
	C1638.826660,641.404297 1638.826660,598.857239 1638.826660,556.239319 
	C1629.082397,556.239319 1619.676147,556.239319 1609.606445,556.239319 
	C1609.606445,562.437378 1609.606445,568.363525 1609.606445,574.289612 
	C1603.887939,565.171509 1596.620239,558.493408 1586.837524,555.020752 
	C1561.134155,545.896606 1528.877563,553.136230 1514.301880,587.885376 
M684.970764,654.576782 
	C676.460999,646.630737 672.947144,636.666077 672.641479,624.589966 
	C706.983765,624.589966 740.866333,624.589966 775.463501,624.589966 
	C774.931519,617.136658 774.904907,610.283936 773.878357,603.584534 
	C770.673096,582.667175 760.658569,566.045776 740.620239,557.703369 
	C732.061707,554.140259 722.369995,552.374756 713.059143,551.731323 
	C692.299011,550.296692 673.923706,556.542908 659.463745,572.207520 
	C643.549316,589.447754 639.941223,610.253174 642.493652,632.645020 
	C644.349670,648.927002 650.876465,663.037109 663.338684,674.031921 
	C687.329102,695.197632 730.574707,695.285950 755.313110,674.271240 
	C762.830750,667.885254 768.792236,660.309082 773.596069,651.339355 
	C765.093262,646.613403 757.154602,642.200989 749.278625,637.823486 
	C735.965515,655.499146 732.186707,658.810608 721.053772,661.330994 
	C708.388123,664.198486 696.217102,663.592285 684.970764,654.576782 
M1981.654541,689.826050 
	C1985.968628,689.555847 1990.332764,689.614258 1994.588867,688.964600 
	C2037.608032,682.398560 2065.846680,640.586670 2051.251221,598.378906 
	C2040.547485,567.424561 2010.893188,549.104614 1976.731445,551.879578 
	C1933.582886,555.384521 1904.107422,597.939758 1916.059692,639.484070 
	C1922.973511,663.514832 1945.659668,687.636414 1981.654541,689.826050 
M895.429199,663.064209 
	C912.925903,683.823120 935.161560,692.357178 962.059753,688.966980 
	C994.890686,684.828979 1021.530396,655.268860 1022.024841,622.370667 
	C1022.586975,584.971436 994.571350,554.368530 956.627136,551.843628 
	C927.291260,549.891541 903.833130,561.330750 889.367065,587.079895 
	C874.869568,612.885010 877.527222,638.524231 895.429199,663.064209 
M321.096161,575.409363 
	C292.010101,542.056396 237.910858,543.781982 210.818665,578.974976 
	C193.723846,601.181458 192.105347,632.691589 207.015778,656.314575 
	C222.939606,681.543091 253.240799,694.574341 281.593384,688.387390 
	C335.085754,676.714600 356.687012,615.937317 321.096161,575.409363 
M2134.925049,661.910583 
	C2123.668457,659.253540 2117.722412,651.748779 2115.905518,640.705811 
	C2115.260498,636.783630 2114.933838,632.766479 2114.916504,628.790710 
	C2114.820312,606.630676 2114.864014,584.470154 2114.860107,562.309753 
	C2114.859619,560.357178 2114.859863,558.404602 2114.859863,556.238098 
	C2104.756104,556.238098 2095.199951,556.238098 2085.178711,556.238098 
	C2085.178711,571.487366 2084.935791,586.448608 2085.249756,601.398132 
	C2085.539795,615.199036 2085.576660,629.090332 2087.231689,642.759460 
	C2090.460693,669.431824 2104.883545,684.068359 2131.136719,688.555237 
	C2143.553955,690.677490 2156.056152,690.445068 2168.396729,687.753235 
	C2185.956055,683.923035 2198.669434,674.115417 2204.287598,656.666992 
	C2206.562988,649.599609 2208.618896,642.136902 2208.847656,634.794067 
	C2209.641357,609.328979 2209.591064,583.837585 2209.846436,558.356079 
	C2209.852539,557.726624 2209.678711,557.095337 2209.558838,556.255432 
	C2199.820557,556.255432 2190.273682,556.255432 2180.274414,556.255432 
	C2180.274414,559.359619 2180.282959,562.155579 2180.273193,564.951538 
	C2180.191895,588.276550 2180.448730,611.609436 2179.906494,634.923767 
	C2179.528076,651.186035 2171.962891,660.246643 2157.074951,662.384094 
	C2150.124512,663.381958 2142.865479,662.230774 2134.925049,661.910583 
M493.137695,610.500000 
	C493.137695,592.420654 493.137695,574.341309 493.137695,556.273926 
	C483.031708,556.273926 473.628113,556.273926 463.831879,556.273926 
	C463.831879,558.567505 463.831848,560.539795 463.831909,562.512085 
	C463.832489,583.332153 463.882935,604.152344 463.795319,624.972046 
	C463.775757,629.622681 463.497894,634.298157 462.947937,638.915649 
	C461.357208,652.272278 454.752380,659.970154 441.470673,662.148926 
	C434.547699,663.284546 427.129425,663.201477 420.194550,662.073059 
	C407.378754,659.987732 400.792175,652.452148 399.067810,639.627991 
	C398.492828,635.351807 398.176056,631.009216 398.157593,626.695190 
	C398.065002,605.042725 398.110443,583.389709 398.107391,561.736877 
	C398.107147,559.960510 398.107330,558.184204 398.107330,556.206543 
	C388.123291,556.206543 378.722748,556.206543 369.048828,556.206543 
	C368.961121,557.408203 368.829590,558.366943 368.830200,559.325562 
	C368.844208,581.477722 368.709198,603.632019 368.996429,625.780762 
	C369.084412,632.565002 369.890930,639.417542 371.138885,646.094849 
	C375.251709,668.101624 387.403748,682.915466 410.003632,687.698730 
	C423.685730,690.594543 437.476990,690.710449 451.177673,687.887512 
	C471.132111,683.776001 483.791443,671.850708 489.313965,652.104187 
	C493.049103,638.748779 493.236542,625.162415 493.137695,610.500000 
M1087.554443,514.416565 
	C1090.866211,497.266235 1098.803101,493.827789 1120.752075,500.208344 
	C1120.752075,491.562256 1120.752075,482.984924 1120.752075,473.062653 
	C1111.911377,472.647797 1103.132690,471.450226 1094.461182,471.986694 
	C1074.204834,473.239868 1061.736938,484.044464 1059.157715,504.125519 
	C1057.216797,519.237244 1057.751465,534.667664 1057.204712,549.956848 
	C1057.136597,551.863525 1057.195557,553.774780 1057.195557,556.156555 
	C1049.302612,556.156555 1042.221924,556.156555 1035.189819,556.156555 
	C1035.189819,564.891174 1035.189819,573.136719 1035.189819,581.893921 
	C1042.572632,581.893921 1049.646729,581.893921 1057.242554,581.893921 
	C1057.242554,616.294800 1057.242554,650.180359 1057.242554,684.249390 
	C1067.347534,684.249390 1076.912598,684.249390 1087.006470,684.249390 
	C1087.006470,650.007507 1087.006470,616.111755 1087.006470,581.710938 
	C1097.443115,581.710938 1107.354858,581.710938 1117.515259,581.710938 
	C1117.515259,572.963928 1117.515259,564.729126 1117.515259,555.846191 
	C1107.210815,555.846191 1097.163208,555.846191 1087.354980,555.846191 
	C1087.354980,541.887756 1087.354980,528.579163 1087.554443,514.416565 
M610.903503,623.588196 
	C607.797607,621.368286 604.921326,618.678772 601.538818,617.024414 
	C594.092407,613.382690 586.332153,610.388855 578.810608,606.892456 
	C572.504333,603.960815 565.833496,601.416992 560.255554,597.406006 
	C551.375732,591.020752 553.329041,579.268066 563.595520,575.354248 
	C566.916748,574.088013 570.738953,573.635498 574.325439,573.663086 
	C583.515869,573.733887 590.283508,578.324036 594.820862,586.557312 
	C601.916931,581.656189 608.567017,577.063110 616.556274,571.545105 
	C611.625061,566.825623 607.787781,561.882751 602.835938,558.644104 
	C585.663513,547.412903 555.951477,548.999512 539.404663,561.177795 
	C521.580383,574.296387 518.701477,602.986145 539.814270,616.804199 
	C545.766907,620.700195 552.180359,623.964417 558.611816,627.038574 
	C566.845703,630.974426 575.527588,634.008789 583.614258,638.206421 
	C591.062683,642.072754 593.408386,647.366760 592.171875,654.026306 
	C590.965027,660.525940 585.808655,665.691345 578.471985,666.793091 
	C563.426147,669.052551 548.477844,665.526917 542.764343,648.818726 
	C542.698547,648.626404 542.244690,648.566833 541.707214,648.327271 
	C534.015442,652.538025 526.173523,656.830994 518.227417,661.180969 
	C523.322754,671.465820 530.099304,679.612244 540.336426,683.964783 
	C560.354553,692.475830 580.638550,692.253235 600.363403,683.302917 
	C626.159302,671.597778 626.797363,637.383362 610.903503,623.588196 
M1446.904297,520.500000 
	C1446.904297,575.041809 1446.904297,629.583618 1446.904297,684.252686 
	C1456.968872,684.252686 1466.380493,684.252686 1475.959961,684.252686 
	C1475.959961,614.222046 1475.959961,544.520752 1475.959961,474.518219 
	C1466.306030,474.518219 1456.910034,474.518219 1446.904297,474.518219 
	C1446.904297,489.642670 1446.904297,504.571350 1446.904297,520.500000 
M473.617218,881.795593 
	C456.802032,875.147095 444.077484,881.081543 433.446533,896.110413 
	C433.446533,890.129639 433.446533,885.527466 433.446533,880.412170 
	C429.626221,880.872803 426.285736,881.275635 423.137451,881.655212 
	C423.137451,914.748840 423.137451,947.175110 423.137451,979.821899 
	C426.702026,979.344666 429.921753,978.913513 433.482788,978.436768 
	C433.482788,976.272461 433.473297,974.466797 433.484283,972.661255 
	C433.603912,952.999756 433.607269,933.336304 433.914520,913.677734 
	C434.019653,906.951538 436.984344,901.136108 441.528809,896.208008 
	C447.882019,889.318665 455.934967,887.225464 464.768097,889.251770 
	C473.245972,891.196594 476.898163,897.984009 478.879303,905.777222 
	C479.531586,908.343140 480.029388,911.023193 480.066376,913.658569 
	C480.325897,932.150696 480.450989,950.644775 480.607056,969.138367 
	C480.636230,972.596863 480.611267,976.055725 480.611267,979.785278 
	C484.382660,979.340332 487.642975,978.955627 491.388611,978.513672 
	C491.388611,976.533997 491.388306,974.736938 491.388611,972.939880 
	C491.391846,954.940247 491.382141,936.940674 491.403809,918.941040 
	C491.415283,909.427612 493.731567,900.792419 501.209290,894.250366 
	C513.777527,883.254639 531.361328,888.143799 536.149719,904.048462 
	C537.147278,907.362122 537.949707,910.876282 537.999390,914.310181 
	C538.288574,934.303528 538.327271,954.300476 538.447754,974.296204 
	C538.458313,976.054810 538.449097,977.813477 538.449097,979.826965 
	C542.358582,979.337891 545.591736,978.933472 548.882751,978.521729 
	C548.882751,955.072632 549.510254,931.913086 548.661560,908.807861 
	C548.098328,893.474548 539.192505,882.933044 527.257935,880.068481 
	C512.909546,876.624512 500.013275,882.205139 491.405792,895.573975 
	C490.808838,896.501221 490.161224,897.395813 489.242371,898.735535 
	C485.908661,891.333313 481.337891,885.556396 473.617218,881.795593 
M1622.890991,958.476135 
	C1613.873901,964.778992 1604.179688,969.094238 1592.938721,969.533386 
	C1577.512329,970.135986 1561.617798,960.646362 1556.817383,947.469788 
	C1581.908691,932.644165 1607.043335,917.792969 1632.403687,902.808350 
	C1622.515503,885.236816 1607.388672,878.724792 1588.404663,879.815613 
	C1567.709351,881.004761 1552.327148,891.055664 1544.555908,910.053528 
	C1536.778809,929.066284 1539.114746,947.723755 1552.898560,963.810669 
	C1571.834229,985.910095 1605.670654,985.902222 1628.809814,968.015808 
	C1629.500610,967.481750 1630.182861,966.453369 1630.213623,965.630859 
	C1630.359985,961.717529 1630.279175,957.795837 1630.279175,953.248230 
	C1627.523315,955.201233 1625.500854,956.634521 1622.890991,958.476135 
M1370.242310,893.736389 
	C1349.877197,912.687561 1351.034668,946.982056 1368.834595,965.399719 
	C1388.161743,985.397705 1420.543335,985.689453 1443.476196,968.010498 
	C1444.253540,967.411133 1444.888916,966.147156 1444.933838,965.163086 
	C1445.103516,961.438843 1445.002075,957.702148 1445.002075,953.059875 
	C1432.732422,962.502502 1420.630737,969.889709 1405.459961,969.551819 
	C1390.362549,969.215576 1376.225220,960.064087 1371.450928,947.489990 
	C1396.572754,932.645691 1421.716064,917.788696 1447.694702,902.438110 
	C1443.931763,898.041748 1440.956421,893.563721 1437.043213,890.165466 
	C1419.228271,874.693909 1390.129883,876.187500 1370.242310,893.736389 
M606.686829,880.123291 
	C605.712097,880.333130 604.735962,880.536499 603.762878,880.753784 
	C584.201233,885.121033 570.813538,896.708435 565.722961,916.077332 
	C560.478882,936.030518 564.847290,954.025208 580.616028,968.347290 
	C599.008240,985.052246 629.506287,985.286499 651.927917,968.077454 
	C652.731262,967.460815 653.519958,966.278015 653.568237,965.321350 
	C653.757080,961.580872 653.645386,957.825256 653.645386,954.527649 
	C644.968567,958.984985 636.911255,963.971558 628.228760,967.352844 
	C619.012573,970.942017 609.220581,970.462463 599.925171,966.697510 
	C590.831848,963.014404 584.082642,956.704651 579.698303,947.666565 
	C605.135864,932.634949 630.264709,917.785706 655.355652,902.958862 
	C650.629944,893.306702 643.161133,886.638733 633.598328,882.859558 
	C625.143188,879.518066 616.413208,879.333252 606.686829,880.123291 
M2078.599365,971.059631 
	C2085.125488,966.777344 2086.352295,962.765808 2083.715088,953.659241 
	C2072.322021,962.531494 2060.299072,969.890930 2045.287476,969.504272 
	C2029.662109,969.101807 2018.258179,961.736694 2010.550171,947.764160 
	C2036.072144,932.674866 2061.279297,917.771729 2086.454102,902.887756 
	C2078.413086,887.996704 2065.874023,880.444885 2048.722656,879.716492 
	C2023.391479,878.640625 2001.781860,893.964722 1996.234985,916.937256 
	C1990.164673,942.078491 2001.597778,966.853577 2024.575562,976.561218 
	C2043.047852,984.365417 2060.997803,981.773621 2078.599365,971.059631 
M1786.941650,938.567078 
	C1791.502075,967.502808 1818.393799,985.516907 1848.667358,979.915710 
	C1876.146851,974.831482 1894.095947,946.437195 1887.576294,918.364563 
	C1881.398682,891.765625 1855.411255,875.221558 1827.826904,880.326782 
	C1800.200806,885.439758 1782.805054,909.798950 1786.941650,938.567078 
M387.800079,889.704529 
	C371.377869,877.908142 353.504608,876.443481 335.264587,883.904175 
	C308.594147,894.813171 297.306519,926.855591 310.201294,953.000244 
	C322.907410,978.762451 356.729980,988.813477 382.208557,974.497375 
	C413.836121,956.726318 416.307770,911.335022 387.800079,889.704529 
M1140.706177,909.192932 
	C1135.505127,921.320129 1134.994751,933.785156 1138.935791,946.235718 
	C1147.264282,972.545898 1175.394165,986.708252 1203.193726,978.895020 
	C1228.815796,971.693787 1244.180908,944.196045 1237.544800,917.419556 
	C1232.625977,897.571350 1215.328491,882.209595 1195.470459,880.053955 
	C1170.986328,877.396118 1151.359009,887.641113 1140.706177,909.192932 
M731.885986,955.500000 
	C731.917419,942.167358 731.629639,928.824219 732.065735,915.504822 
	C732.549255,900.737244 745.867981,888.401428 760.719299,888.275085 
	C775.319031,888.150818 785.182922,897.236755 785.928040,913.481262 
	C786.858643,933.770569 786.522522,954.117859 786.748779,974.439941 
	C786.768127,976.177124 786.904175,977.912964 786.992920,979.795471 
	C790.595154,979.337891 793.699097,978.943665 796.809143,978.548584 
	C796.809143,954.882263 798.093201,931.329590 796.426514,907.987549 
	C794.936768,887.122498 777.966980,876.205933 757.347473,879.669556 
	C746.755005,881.448853 738.973938,887.372986 731.890015,896.518494 
	C731.890015,877.435486 731.890015,859.542664 731.890015,841.320007 
	C728.003052,841.757080 724.619263,842.137573 721.207458,842.521179 
	C721.207458,888.532104 721.207458,934.126465 721.207458,979.850830 
	C724.903992,979.342773 728.300842,978.875854 731.885986,978.383118 
	C731.885986,970.805847 731.885986,963.652954 731.885986,955.500000 
M1931.845947,891.021484 
	C1951.024536,883.068726 1967.678467,892.512695 1968.870483,913.182739 
	C1970.029663,933.281128 1969.522949,953.475708 1969.741943,973.628113 
	C1969.763184,975.577576 1969.744873,977.527466 1969.744873,979.809265 
	C1973.492188,979.334839 1976.712646,978.927063 1979.907593,978.522522 
	C1979.907593,955.023376 1980.625610,931.856995 1979.631226,908.764343 
	C1979.059448,895.485840 1972.117310,884.923584 1958.385010,880.894043 
	C1943.559326,876.543579 1930.433228,879.718079 1919.561890,891.007141 
	C1918.143066,892.480347 1916.833252,894.058594 1914.729736,896.424194 
	C1914.729736,890.426208 1914.729736,885.527466 1914.729736,880.373596 
	C1910.834106,880.882141 1907.446045,881.324402 1904.204956,881.747498 
	C1904.204956,914.745972 1904.204956,947.186096 1904.204956,979.835449 
	C1907.890137,979.341736 1911.273193,978.888489 1914.883179,978.404846 
	C1914.883179,958.684753 1915.079956,939.371704 1914.814331,920.065002 
	C1914.635986,907.110107 1920.095947,897.722351 1931.845947,891.021484 
M882.997192,880.273987 
	C873.998596,882.825073 867.105652,888.442627 860.694214,897.010681 
	C860.694214,890.398376 860.694214,885.472839 860.694214,880.380737 
	C856.890564,880.878113 853.494995,881.322083 850.231445,881.748840 
	C850.231445,914.764160 850.231445,947.213013 850.231445,979.844421 
	C853.888367,979.363708 857.284119,978.917236 860.961670,978.433777 
	C860.961670,976.774719 860.960876,975.465881 860.961792,974.157043 
	C860.975525,954.996826 860.789795,935.833801 861.066895,916.677368 
	C861.286987,901.459778 873.901367,888.989380 889.131592,888.295471 
	C903.826538,887.625854 913.937012,896.520630 914.986145,913.277283 
	C916.129211,931.534058 915.648376,949.892944 915.857178,968.207458 
	C915.900452,972.002747 915.863464,975.798889 915.863464,979.844177 
	C919.614380,979.338257 922.826050,978.905090 925.903259,978.490051 
	C925.903259,954.651306 926.803589,931.150696 925.597290,907.758728 
	C924.745483,891.240662 913.334717,881.069397 897.198792,879.391846 
	C892.803528,878.934937 888.270020,879.808228 882.997192,880.273987 
M275.185852,978.817932 
	C276.223297,978.291809 277.286377,977.810303 278.294281,977.232605 
	C288.732788,971.250183 294.237518,962.288025 293.881042,950.203735 
	C293.536957,938.538391 286.891815,931.164795 276.540314,926.849731 
	C272.729340,925.261169 268.655609,924.314514 264.748566,922.941772 
	C259.911499,921.242249 254.849548,919.912781 250.377350,917.507507 
	C243.495758,913.806396 241.453766,907.602539 243.966599,900.568359 
	C246.138474,894.488647 250.862747,891.414307 256.868927,890.028503 
	C268.010345,887.457947 277.008850,892.095032 285.615387,898.897278 
	C287.843719,895.981079 290.025879,893.125244 292.393585,890.026672 
	C290.521729,888.591187 289.021332,887.300903 287.387909,886.209717 
	C271.630829,875.683044 250.302063,877.061340 238.503326,888.882935 
	C228.488586,898.917114 227.920319,921.244995 245.093445,928.344177 
	C249.377518,930.115173 253.769241,931.633728 258.145538,933.171448 
	C263.304565,934.984192 268.637207,936.374084 273.644592,938.528381 
	C279.413208,941.010315 281.922058,945.939758 281.980286,952.143982 
	C282.086945,963.510376 272.918762,971.044006 259.981445,970.412476 
	C250.435440,969.946533 242.967514,965.406189 236.588089,958.588745 
	C233.752319,961.320251 231.174286,963.803589 228.635468,966.249084 
	C239.726181,980.054260 257.307800,984.854675 275.185852,978.817932 
M1447.081177,882.406128 
	C1447.250732,883.813843 1447.070801,885.385620 1447.642822,886.604431 
	C1454.691650,901.624390 1461.845825,916.594971 1468.982178,931.573853 
	C1476.682739,947.737061 1484.393311,963.895447 1492.408569,980.704102 
	C1508.086914,947.594788 1523.457520,915.135315 1538.939819,882.439941 
	C1535.195068,881.463501 1531.859497,880.593811 1528.169800,879.631714 
	C1516.287354,904.936829 1504.513062,930.011597 1492.396729,955.814880 
	C1480.279053,929.933289 1468.555298,904.893005 1456.743530,879.664978 
	C1453.514282,880.563477 1450.659790,881.357727 1447.081177,882.406128 
M1097.865356,932.499939 
	C1097.865356,948.247498 1097.865356,963.994995 1097.865356,979.911560 
	C1101.974121,979.326660 1105.357422,978.845032 1109.003418,978.325989 
	C1109.003418,949.416016 1109.003418,921.001282 1109.003418,892.188721 
	C1117.418457,892.188721 1125.497681,892.188721 1133.793701,892.188721 
	C1133.793701,888.547180 1133.793701,885.306030 1133.793701,881.751404 
	C1125.491699,881.751404 1117.369507,881.751404 1108.769653,881.751404 
	C1108.229492,873.275513 1107.962280,865.078552 1112.783325,857.956909 
	C1118.726074,849.178162 1128.355469,849.877747 1137.786255,849.616516 
	C1136.675781,846.153198 1135.685425,843.064331 1134.711426,840.026855 
	C1124.998535,839.650940 1115.805786,840.344299 1108.341431,846.564575 
	C1097.408936,855.674805 1097.903198,868.757996 1097.564697,881.960938 
	C1093.921875,881.960938 1089.703613,880.716797 1087.623657,882.293518 
	C1085.316284,884.042786 1084.961304,888.367371 1083.518677,892.202026 
	C1088.604370,892.202026 1093.020020,892.202026 1097.865356,892.202026 
	C1097.865356,905.612915 1097.865356,918.556396 1097.865356,932.499939 
M684.170837,877.692444 
	C684.170837,869.411743 684.170837,861.131042 684.170837,852.239990 
	C681.835510,853.639893 680.225220,854.846802 678.430359,855.631592 
	C674.471252,857.362549 672.804810,859.950623 673.213196,864.509949 
	C673.713501,870.094971 673.332458,875.758911 673.332458,881.781738 
	C669.393982,881.781738 665.958252,881.781738 662.402832,881.781738 
	C661.397644,885.360657 660.492676,888.583008 659.476440,892.201416 
	C664.463013,892.201416 668.610962,892.201416 673.334473,892.201416 
	C673.334473,894.365234 673.315063,896.325378 673.337463,898.284912 
	C673.548584,916.760986 673.332581,935.255127 674.105896,953.707825 
	C674.871033,971.965759 684.321899,980.681580 700.980042,979.877930 
	C710.690308,979.409424 711.149048,978.903503 710.547913,969.247925 
	C710.528625,968.938660 710.314758,968.641602 710.007812,967.886963 
	C708.524963,968.146179 706.943176,968.456848 705.350525,968.695801 
	C692.306091,970.653076 685.573181,966.040283 685.022827,952.912476 
	C684.193970,933.138489 684.467468,913.318176 684.310120,893.517273 
	C684.306824,893.105957 684.762451,892.691040 685.187012,891.964600 
	C693.182251,891.964600 701.286621,891.964600 709.477417,891.964600 
	C709.477417,888.484741 709.477417,885.363159 709.477417,881.747559 
	C702.185181,881.747559 695.059631,881.717712 687.934509,881.765686 
	C685.780823,881.780151 683.794067,881.802429 684.170837,877.692444 
M1254.816650,947.499268 
	C1254.816650,958.209961 1254.816650,968.920715 1254.816650,979.938721 
	C1256.578613,979.657654 1257.544189,979.491028 1258.513672,979.350891 
	C1265.684570,978.314453 1265.560425,978.313538 1265.710083,971.191711 
	C1266.041870,955.403381 1265.643311,939.534180 1267.156250,923.853638 
	C1268.839600,906.406677 1276.365601,892.596924 1295.976318,889.509216 
	C1297.023193,889.344299 1298.253418,888.162354 1298.754150,887.138733 
	C1300.030151,884.531616 1300.940796,881.745789 1302.091431,878.790405 
	C1285.406860,877.811890 1274.411133,885.884338 1265.721924,898.981506 
	C1265.721924,892.953979 1265.721924,886.926514 1265.721924,880.409851 
	C1261.771118,880.859375 1258.405029,881.242371 1254.816650,881.650635 
	C1254.816650,903.612915 1254.816650,925.056030 1254.816650,947.499268 
M828.527832,880.521545 
	C825.083191,880.899963 821.638550,881.278381 818.267517,881.648743 
	C818.267517,914.707703 818.267517,947.286438 818.267517,980.034119 
	C821.960022,979.488708 825.366882,978.985474 828.972473,978.452881 
	C828.972473,945.845215 828.972473,913.560303 828.527832,880.521545 
M821.912842,858.469849 
	C822.885376,858.481995 824.303955,858.914795 824.755676,858.435791 
	C827.126892,855.921326 829.253479,853.176025 831.697998,850.230103 
	C828.986572,847.248535 826.346191,844.345032 823.501648,841.217041 
	C821.921753,843.112793 820.534729,844.739990 819.189941,846.401367 
	C817.887695,848.010376 816.628906,849.654724 815.348206,851.287170 
	C817.640503,853.817078 819.526367,855.898438 821.912842,858.469849 
z"/>
<path fill="#E11B23" opacity="1.000000" stroke="none" 
	d="
M1308.531372,1.000000 
	C1308.968018,22.992088 1309.128052,44.986603 1308.850220,66.975586 
	C1308.571411,89.033501 1306.108154,110.763519 1298.415649,131.698334 
	C1286.817261,163.263199 1266.727173,188.004745 1239.067871,206.822845 
	C1237.328369,208.006256 1235.570679,209.162979 1233.713745,210.404175 
	C1240.770386,215.834854 1247.715088,220.709854 1254.134277,226.199356 
	C1285.191650,252.758865 1302.813477,286.648621 1306.866577,327.129120 
	C1308.885010,347.289124 1308.804199,367.659332 1309.692261,388.385193 
	C1290.958374,388.385193 1273.256958,388.385193 1254.958130,388.385193 
	C1254.958130,386.214355 1255.040894,384.101135 1254.945312,381.996002 
	C1254.084595,363.061676 1254.674072,343.914551 1251.973633,325.244110 
	C1247.573242,294.820251 1230.258179,272.126404 1204.293091,256.044617 
	C1189.416748,246.830780 1173.216553,240.166656 1155.955200,238.152802 
	C1128.936157,235.000488 1103.064453,239.475739 1078.951172,253.267853 
	C1051.207886,269.136230 1032.585327,291.808624 1026.837158,323.329315 
	C1024.024414,338.753021 1024.464111,354.782104 1023.627625,370.547607 
	C1023.320435,376.338074 1023.578064,382.158478 1023.578064,388.382843 
	C1005.643066,388.382843 988.115112,388.382843 970.593079,388.382843 
	C970.409973,388.065277 970.115234,387.792267 970.113953,387.517883 
	C969.987244,361.063721 968.802917,334.571869 974.864075,308.457825 
	C982.954529,273.600677 1000.979675,245.053543 1028.691772,222.571442 
	C1033.841431,218.393753 1039.342163,214.648727 1044.143066,211.101410 
	C1034.801392,203.275940 1024.919678,195.915314 1016.107056,187.442780 
	C990.377136,162.705734 976.086792,131.927979 972.228943,96.777649 
	C970.092468,77.311684 970.480042,57.556286 970.007690,37.924671 
	C969.719238,25.935209 969.958313,13.933057 969.980225,1.468302 
	C987.687561,1.000000 1005.375122,1.000000 1023.358154,1.441607 
	C1023.782104,27.871372 1023.524536,53.869221 1024.176514,79.844246 
	C1024.603027,96.840706 1029.144897,113.034218 1037.588013,127.939919 
	C1050.920532,151.477539 1071.486572,166.132492 1096.085938,176.202637 
	C1116.643677,184.618225 1137.908325,185.716827 1159.342773,182.684525 
	C1176.113159,180.312042 1191.640503,173.493271 1205.927979,164.325684 
	C1223.713135,152.913910 1237.474854,137.961029 1245.781616,118.222588 
	C1252.629883,101.949867 1254.859497,84.913208 1254.941406,67.480560 
	C1255.045532,45.320774 1254.987793,23.160223 1255.000000,1.000000 
	C1272.687622,1.000000 1290.375122,1.000000 1308.531372,1.000000 
z"/>
<path fill="#FFFEFE" opacity="1.000000" stroke="none" 
	d="
M1254.531372,1.000000 
	C1254.987793,23.160223 1255.045532,45.320774 1254.941406,67.480560 
	C1254.859497,84.913208 1252.629883,101.949867 1245.781616,118.222588 
	C1237.474854,137.961029 1223.713135,152.913910 1205.927979,164.325684 
	C1191.640503,173.493271 1176.113159,180.312042 1159.342773,182.684525 
	C1137.908325,185.716827 1116.643677,184.618225 1096.085938,176.202637 
	C1071.486572,166.132492 1050.920532,151.477539 1037.588013,127.939919 
	C1029.144897,113.034218 1024.603027,96.840706 1024.176514,79.844246 
	C1023.524536,53.869221 1023.782104,27.871372 1023.826782,1.441607 
	C1100.687622,1.000000 1177.375122,1.000000 1254.531372,1.000000 
M1094.590454,98.249268 
	C1094.097534,102.531273 1092.992310,106.844780 1093.210815,111.090164 
	C1094.637939,138.814774 1118.790649,159.298798 1146.226074,155.162613 
	C1164.889160,152.348984 1177.839844,142.008972 1183.668213,124.220917 
	C1189.736206,105.701202 1185.717896,88.481995 1171.313110,75.296883 
	C1145.059082,51.265831 1104.760742,63.252113 1094.590454,98.249268 
z"/>
<path fill="#E11D24" opacity="1.000000" stroke="none" 
	d="
M1.000000,486.468658 
	C11.475569,486.000000 21.951138,486.000000 32.987793,486.000000 
	C32.987793,510.303955 32.987793,534.354065 32.987793,558.761902 
	C65.780693,558.761902 98.013527,558.761902 130.744751,558.761902 
	C130.744751,534.790466 130.744751,510.720123 130.744751,486.310974 
	C141.629868,486.310974 152.025162,486.310974 162.781937,486.310974 
	C162.781937,552.190613 162.781937,618.073181 162.781937,684.273315 
	C152.315430,684.273315 141.901581,684.273315 131.070160,684.273315 
	C131.070160,652.304810 131.070160,620.546814 131.070160,588.426758 
	C98.423729,588.426758 66.190086,588.426758 33.347878,588.426758 
	C33.347878,620.208679 33.347878,652.097656 33.347878,684.652283 
	C22.460497,684.652283 12.171708,684.652283 1.441460,684.826172 
	C1.000000,618.979126 1.000000,552.958191 1.000000,486.468658 
z"/>
<path fill="#E01F26" opacity="1.000000" stroke="none" 
	d="
M2335.000000,558.666687 
	C2332.367188,564.659424 2329.723877,570.313904 2327.107910,575.981079 
	C2326.217773,577.909119 2325.396973,579.869080 2324.893311,581.018372 
	C2318.761475,579.607544 2313.216553,577.565918 2307.560547,577.187195 
	C2295.135498,576.355347 2286.419434,582.149353 2283.283447,594.212585 
	C2280.878174,603.464783 2279.542480,613.186035 2279.222412,622.748657 
	C2278.598633,641.391235 2279.019531,660.068726 2279.008057,678.731750 
	C2279.006836,680.513367 2279.007812,682.294983 2279.007812,684.329041 
	C2269.047119,684.329041 2259.621582,684.329041 2249.843750,684.329041 
	C2249.843750,641.521118 2249.843750,598.959412 2249.843750,556.062500 
	C2259.389404,556.062500 2268.818604,556.062500 2278.706543,556.062500 
	C2278.706543,561.874939 2278.706543,567.803345 2278.706543,575.273499 
	C2280.031738,573.109558 2280.623779,572.293457 2281.063477,571.402283 
	C2289.179443,554.957397 2301.979004,548.565491 2320.073730,552.359192 
	C2324.913330,553.373962 2329.538818,555.408875 2334.631348,556.987671 
	C2335.000000,557.444458 2335.000000,557.888916 2335.000000,558.666687 
z"/>
<path fill="#060606" opacity="1.000000" stroke="none" 
	d="
M969.468506,1015.000000 
	C966.750549,1014.203918 964.504395,1013.398376 962.251099,1012.613220 
	C951.008545,1008.695679 942.206970,1001.681702 935.377686,991.375183 
	C938.561096,989.271484 941.664978,987.220337 943.705139,985.872131 
	C950.437805,991.165588 956.013306,997.260620 962.919800,1000.615845 
	C976.448975,1007.188354 990.149780,1006.031128 1002.363342,996.579468 
	C1014.030823,987.550476 1015.284424,971.810059 1005.211853,960.925598 
	C994.509277,949.360229 981.077026,947.926941 966.606262,951.507812 
	C962.803650,952.448792 959.134399,953.928528 954.668518,955.403809 
	C956.174805,951.216614 957.487610,947.567139 958.869690,943.725281 
	C950.972046,938.759094 944.701111,932.518250 942.028320,923.411743 
	C936.563354,904.792358 948.148682,885.860596 968.365112,881.187805 
	C974.104919,879.861145 980.309082,879.522644 986.187744,880.031311 
	C998.170959,881.068054 1009.757385,879.543701 1021.284912,876.636536 
	C1022.518066,876.325500 1023.787415,876.157715 1025.162598,875.900513 
	C1023.219177,887.831848 1022.169617,888.535034 1007.068909,887.568726 
	C1017.733215,895.450806 1022.991943,905.207581 1021.497131,917.886658 
	C1019.997070,930.609863 1012.453186,938.931213 1000.933289,944.860535 
	C1001.928284,945.550110 1002.473755,946.002075 1003.082764,946.339172 
	C1017.272278,954.195251 1024.859619,965.984009 1022.818665,982.387146 
	C1020.803467,998.583374 1009.933472,1007.606689 995.378418,1012.905396 
	C993.673096,1013.526123 991.834961,1013.782288 990.029175,1014.603699 
	C983.312378,1015.000000 976.624695,1015.000000 969.468506,1015.000000 
M1002.257202,897.197083 
	C990.314697,887.993896 973.790039,887.345398 962.305115,895.629272 
	C948.733459,905.418274 948.431702,923.134033 961.726074,933.316406 
	C970.135803,939.757507 979.780640,940.874329 989.700623,938.565063 
	C999.336853,936.321899 1006.680298,930.672424 1009.470459,920.784119 
	C1011.972961,911.915405 1009.809326,903.997437 1002.257202,897.197083 
z"/>
<path fill="#E01F26" opacity="1.000000" stroke="none" 
	d="
M1292.741699,516.584717 
	C1265.600220,528.852661 1252.173950,550.190979 1250.188599,578.954529 
	C1248.732422,600.052673 1252.942993,619.848450 1267.076294,636.398438 
	C1284.104004,656.338013 1306.493530,662.544250 1331.770020,660.529419 
	C1345.482300,659.436340 1358.295288,655.756836 1368.795288,646.225403 
	C1379.297729,636.691895 1382.940552,624.519531 1382.675903,610.270996 
	C1366.862793,610.270996 1351.276001,610.270996 1335.331299,610.270996 
	C1335.331299,601.069397 1335.331299,592.337952 1335.331299,583.238098 
	C1361.162109,583.238098 1387.064697,583.238098 1413.960449,583.238098 
	C1413.960449,592.073364 1414.387207,601.011353 1413.876709,609.895447 
	C1412.592529,632.236938 1405.712646,652.319885 1388.735229,667.918152 
	C1375.763550,679.836182 1360.109131,685.896729 1342.933228,688.313171 
	C1320.833130,691.422424 1298.931641,690.517212 1278.036011,682.135132 
	C1243.885742,668.436218 1224.592041,642.192566 1218.218506,606.668640 
	C1212.709595,575.963745 1217.309448,546.717468 1237.039795,521.509705 
	C1260.345459,491.733856 1291.988403,480.176361 1329.003052,481.736359 
	C1356.656982,482.901825 1379.304688,494.306366 1397.411011,516.215942 
	C1389.667969,522.071838 1382.054321,527.829956 1374.138672,533.816467 
	C1351.076050,509.202576 1323.506836,505.970459 1292.741699,516.584717 
z"/>
<path fill="#E02027" opacity="1.000000" stroke="none" 
	d="
M1767.635742,618.996948 
	C1767.107910,611.699097 1766.891357,604.860168 1765.995605,598.111389 
	C1763.284668,577.689453 1748.813110,573.226685 1732.569458,577.682312 
	C1719.810303,581.182068 1711.770264,590.009827 1711.026855,603.428711 
	C1710.060547,620.870850 1710.193726,638.376282 1709.961182,655.855896 
	C1709.837280,665.172180 1709.939331,674.491394 1709.939331,684.200867 
	C1700.115112,684.200867 1690.576782,684.200867 1680.690674,684.200867 
	C1680.690674,641.452942 1680.690674,598.913147 1680.690674,556.156250 
	C1689.748413,556.156250 1698.531128,556.156250 1707.760010,556.156250 
	C1707.760010,562.423340 1707.760010,568.677185 1707.760010,574.930969 
	C1708.087158,575.262390 1708.414307,575.593750 1708.741455,575.925171 
	C1719.257202,560.237305 1733.580933,551.611450 1752.306763,551.160950 
	C1771.284180,550.704285 1786.192505,557.250488 1794.420898,576.360291 
	C1796.408936,574.143372 1798.096802,572.258484 1799.787598,570.376099 
	C1814.125000,554.412903 1831.989258,548.622559 1852.964478,552.164246 
	C1871.326538,555.264709 1883.139404,567.626038 1883.592407,586.714783 
	C1884.354980,618.847046 1883.896362,651.008301 1883.933105,683.157349 
	C1883.933472,683.449768 1883.684204,683.742371 1883.427002,684.309814 
	C1874.122925,684.309814 1864.700073,684.309814 1854.582275,684.309814 
	C1854.582275,682.207092 1854.585205,680.270508 1854.581665,678.333923 
	C1854.543457,656.843811 1854.721680,635.349976 1854.348145,613.865662 
	C1854.215942,606.263000 1853.249146,598.580017 1851.737305,591.121399 
	C1850.050415,582.799316 1844.376343,578.122681 1835.846313,576.747192 
	C1815.319580,573.437378 1802.106445,582.759766 1799.116699,603.421814 
	C1797.952515,611.467468 1797.502197,619.664429 1797.378540,627.802429 
	C1797.120117,644.791260 1797.295166,661.786560 1797.292480,678.779236 
	C1797.292114,680.563538 1797.292480,682.347839 1797.292480,684.357910 
	C1787.270264,684.357910 1777.828003,684.357910 1767.636719,684.357910 
	C1767.636719,662.677673 1767.636719,641.087402 1767.635742,618.996948 
z"/>
<path fill="#E01F26" opacity="1.000000" stroke="none" 
	d="
M1514.474121,587.541504 
	C1528.877563,553.136230 1561.134155,545.896606 1586.837524,555.020752 
	C1596.620239,558.493408 1603.887939,565.171509 1609.606445,574.289612 
	C1609.606445,568.363525 1609.606445,562.437378 1609.606445,556.239319 
	C1619.676147,556.239319 1629.082397,556.239319 1638.826660,556.239319 
	C1638.826660,598.857239 1638.826660,641.404297 1638.826660,684.272705 
	C1629.346924,684.272705 1619.931641,684.272705 1610.084229,684.272705 
	C1610.084229,679.406311 1610.084229,674.653564 1610.084229,668.874817 
	C1608.572510,670.151550 1607.649902,670.676880 1607.070312,671.457153 
	C1586.027100,699.787354 1529.377075,697.149780 1514.202026,653.468750 
	C1506.641968,631.707336 1506.560303,609.734741 1514.474121,587.541504 
M1539.631470,623.455078 
	C1540.121460,627.744934 1540.281372,632.103882 1541.161621,636.312134 
	C1544.167847,650.684692 1554.113525,660.821472 1566.911499,662.942017 
	C1583.203613,665.641479 1596.098633,660.177917 1603.916260,646.517212 
	C1612.371704,631.742126 1612.498535,615.923218 1607.447754,600.167969 
	C1602.661377,585.237549 1591.140503,577.712708 1575.126221,577.774902 
	C1559.377319,577.836060 1547.533325,585.684387 1542.972046,600.455383 
	C1540.804199,607.475586 1540.644043,615.115662 1539.631470,623.455078 
z"/>
<path fill="#E02027" opacity="1.000000" stroke="none" 
	d="
M685.239685,654.815308 
	C696.217102,663.592285 708.388123,664.198486 721.053772,661.330994 
	C732.186707,658.810608 735.965515,655.499146 749.278625,637.823486 
	C757.154602,642.200989 765.093262,646.613403 773.596069,651.339355 
	C768.792236,660.309082 762.830750,667.885254 755.313110,674.271240 
	C730.574707,695.285950 687.329102,695.197632 663.338684,674.031921 
	C650.876465,663.037109 644.349670,648.927002 642.493652,632.645020 
	C639.941223,610.253174 643.549316,589.447754 659.463745,572.207520 
	C673.923706,556.542908 692.299011,550.296692 713.059143,551.731323 
	C722.369995,552.374756 732.061707,554.140259 740.620239,557.703369 
	C760.658569,566.045776 770.673096,582.667175 773.878357,603.584534 
	C774.904907,610.283936 774.931519,617.136658 775.463501,624.589966 
	C740.866333,624.589966 706.983765,624.589966 672.641479,624.589966 
	C672.947144,636.666077 676.460999,646.630737 685.239685,654.815308 
M701.767456,577.040955 
	C686.396545,580.284668 676.152771,590.702026 674.817017,604.494324 
	C697.859070,604.494324 720.894043,604.494324 743.930359,604.494324 
	C743.784180,593.118896 736.735718,582.383667 725.698547,579.305969 
	C718.360107,577.259705 710.340332,577.656799 701.767456,577.040955 
z"/>
<path fill="#E01F26" opacity="1.000000" stroke="none" 
	d="
M1981.187744,689.808838 
	C1945.659668,687.636414 1922.973511,663.514832 1916.059692,639.484070 
	C1904.107422,597.939758 1933.582886,555.384521 1976.731445,551.879578 
	C2010.893188,549.104614 2040.547485,567.424561 2051.251221,598.378906 
	C2065.846680,640.586670 2037.608032,682.398560 1994.588867,688.964600 
	C1990.332764,689.614258 1985.968628,689.555847 1981.187744,689.808838 
M1945.356445,611.239685 
	C1945.235352,616.546448 1944.629150,621.894531 1945.076416,627.152954 
	C1947.086914,650.791199 1970.475708,667.794250 1993.089722,662.306335 
	C2010.060669,658.187866 2022.559448,642.751770 2023.886353,624.272583 
	C2025.254639,605.215759 2015.131226,587.517395 1999.057495,580.866394 
	C1976.210938,571.413086 1951.679565,584.977173 1945.356445,611.239685 
z"/>
<path fill="#E01F26" opacity="1.000000" stroke="none" 
	d="
M895.199951,662.790161 
	C877.527222,638.524231 874.869568,612.885010 889.367065,587.079895 
	C903.833130,561.330750 927.291260,549.891541 956.627136,551.843628 
	C994.571350,554.368530 1022.586975,584.971436 1022.024841,622.370667 
	C1021.530396,655.268860 994.890686,684.828979 962.059753,688.966980 
	C935.161560,692.357178 912.925903,683.823120 895.199951,662.790161 
M990.133789,629.404236 
	C990.391174,625.267151 991.050415,621.109314 990.838623,616.996399 
	C989.739502,595.651733 972.408936,578.272217 952.196777,577.991028 
	C928.701050,577.664246 910.766846,597.168335 911.621826,622.117920 
	C912.276489,641.221985 924.201050,657.523560 940.752808,661.941895 
	C963.304504,667.961914 984.046570,654.616028 990.133789,629.404236 
z"/>
<path fill="#E01F26" opacity="1.000000" stroke="none" 
	d="
M321.327209,575.675903 
	C356.687012,615.937317 335.085754,676.714600 281.593384,688.387390 
	C253.240799,694.574341 222.939606,681.543091 207.015778,656.314575 
	C192.105347,632.691589 193.723846,601.181458 210.818665,578.974976 
	C237.910858,543.781982 292.010101,542.056396 321.327209,575.675903 
M230.133331,635.161743 
	C241.650406,666.188416 277.264587,673.327942 297.696106,648.688049 
	C306.086334,638.569580 308.247253,626.752625 306.959656,614.028931 
	C305.349579,598.118286 292.369141,582.737976 277.494019,579.122070 
	C260.563202,575.006470 244.272812,581.563782 234.783417,596.505371 
	C227.272171,608.332214 226.317825,621.084229 230.133331,635.161743 
z"/>
<path fill="#E02027" opacity="1.000000" stroke="none" 
	d="
M2135.335693,661.982117 
	C2142.865479,662.230774 2150.124512,663.381958 2157.074951,662.384094 
	C2171.962891,660.246643 2179.528076,651.186035 2179.906494,634.923767 
	C2180.448730,611.609436 2180.191895,588.276550 2180.273193,564.951538 
	C2180.282959,562.155579 2180.274414,559.359619 2180.274414,556.255432 
	C2190.273682,556.255432 2199.820557,556.255432 2209.558838,556.255432 
	C2209.678711,557.095337 2209.852539,557.726624 2209.846436,558.356079 
	C2209.591064,583.837585 2209.641357,609.328979 2208.847656,634.794067 
	C2208.618896,642.136902 2206.562988,649.599609 2204.287598,656.666992 
	C2198.669434,674.115417 2185.956055,683.923035 2168.396729,687.753235 
	C2156.056152,690.445068 2143.553955,690.677490 2131.136719,688.555237 
	C2104.883545,684.068359 2090.460693,669.431824 2087.231689,642.759460 
	C2085.576660,629.090332 2085.539795,615.199036 2085.249756,601.398132 
	C2084.935791,586.448608 2085.178711,571.487366 2085.178711,556.238098 
	C2095.199951,556.238098 2104.756104,556.238098 2114.859863,556.238098 
	C2114.859863,558.404602 2114.859619,560.357178 2114.860107,562.309753 
	C2114.864014,584.470154 2114.820312,606.630676 2114.916504,628.790710 
	C2114.933838,632.766479 2115.260498,636.783630 2115.905518,640.705811 
	C2117.722412,651.748779 2123.668457,659.253540 2135.335693,661.982117 
z"/>
<path fill="#E01E25" opacity="1.000000" stroke="none" 
	d="
M493.137695,611.000000 
	C493.236542,625.162415 493.049103,638.748779 489.313965,652.104187 
	C483.791443,671.850708 471.132111,683.776001 451.177673,687.887512 
	C437.476990,690.710449 423.685730,690.594543 410.003632,687.698730 
	C387.403748,682.915466 375.251709,668.101624 371.138885,646.094849 
	C369.890930,639.417542 369.084412,632.565002 368.996429,625.780762 
	C368.709198,603.632019 368.844208,581.477722 368.830200,559.325562 
	C368.829590,558.366943 368.961121,557.408203 369.048828,556.206543 
	C378.722748,556.206543 388.123291,556.206543 398.107330,556.206543 
	C398.107330,558.184204 398.107147,559.960510 398.107391,561.736877 
	C398.110443,583.389709 398.065002,605.042725 398.157593,626.695190 
	C398.176056,631.009216 398.492828,635.351807 399.067810,639.627991 
	C400.792175,652.452148 407.378754,659.987732 420.194550,662.073059 
	C427.129425,663.201477 434.547699,663.284546 441.470673,662.148926 
	C454.752380,659.970154 461.357208,652.272278 462.947937,638.915649 
	C463.497894,634.298157 463.775757,629.622681 463.795319,624.972046 
	C463.882935,604.152344 463.832489,583.332153 463.831909,562.512085 
	C463.831848,560.539795 463.831879,558.567505 463.831879,556.273926 
	C473.628113,556.273926 483.031708,556.273926 493.137695,556.273926 
	C493.137695,574.341309 493.137695,592.420654 493.137695,611.000000 
z"/>
<path fill="#E02127" opacity="1.000000" stroke="none" 
	d="
M1087.454712,514.843628 
	C1087.354980,528.579163 1087.354980,541.887756 1087.354980,555.846191 
	C1097.163208,555.846191 1107.210815,555.846191 1117.515259,555.846191 
	C1117.515259,564.729126 1117.515259,572.963928 1117.515259,581.710938 
	C1107.354858,581.710938 1097.443115,581.710938 1087.006470,581.710938 
	C1087.006470,616.111755 1087.006470,650.007507 1087.006470,684.249390 
	C1076.912598,684.249390 1067.347534,684.249390 1057.242554,684.249390 
	C1057.242554,650.180359 1057.242554,616.294800 1057.242554,581.893921 
	C1049.646729,581.893921 1042.572632,581.893921 1035.189819,581.893921 
	C1035.189819,573.136719 1035.189819,564.891174 1035.189819,556.156555 
	C1042.221924,556.156555 1049.302612,556.156555 1057.195557,556.156555 
	C1057.195557,553.774780 1057.136597,551.863525 1057.204712,549.956848 
	C1057.751465,534.667664 1057.216797,519.237244 1059.157715,504.125519 
	C1061.736938,484.044464 1074.204834,473.239868 1094.461182,471.986694 
	C1103.132690,471.450226 1111.911377,472.647797 1120.752075,473.062653 
	C1120.752075,482.984924 1120.752075,491.562256 1120.752075,500.208344 
	C1098.803101,493.827789 1090.866211,497.266235 1087.454712,514.843628 
z"/>
<path fill="#E02027" opacity="1.000000" stroke="none" 
	d="
M611.171509,623.824646 
	C626.797363,637.383362 626.159302,671.597778 600.363403,683.302917 
	C580.638550,692.253235 560.354553,692.475830 540.336426,683.964783 
	C530.099304,679.612244 523.322754,671.465820 518.227417,661.180969 
	C526.173523,656.830994 534.015442,652.538025 541.707214,648.327271 
	C542.244690,648.566833 542.698547,648.626404 542.764343,648.818726 
	C548.477844,665.526917 563.426147,669.052551 578.471985,666.793091 
	C585.808655,665.691345 590.965027,660.525940 592.171875,654.026306 
	C593.408386,647.366760 591.062683,642.072754 583.614258,638.206421 
	C575.527588,634.008789 566.845703,630.974426 558.611816,627.038574 
	C552.180359,623.964417 545.766907,620.700195 539.814270,616.804199 
	C518.701477,602.986145 521.580383,574.296387 539.404663,561.177795 
	C555.951477,548.999512 585.663513,547.412903 602.835938,558.644104 
	C607.787781,561.882751 611.625061,566.825623 616.556274,571.545105 
	C608.567017,577.063110 601.916931,581.656189 594.820862,586.557312 
	C590.283508,578.324036 583.515869,573.733887 574.325439,573.663086 
	C570.738953,573.635498 566.916748,574.088013 563.595520,575.354248 
	C553.329041,579.268066 551.375732,591.020752 560.255554,597.406006 
	C565.833496,601.416992 572.504333,603.960815 578.810608,606.892456 
	C586.332153,610.388855 594.092407,613.382690 601.538818,617.024414 
	C604.921326,618.678772 607.797607,621.368286 611.171509,623.824646 
z"/>
<path fill="#E01E25" opacity="1.000000" stroke="none" 
	d="
M1446.904297,520.000000 
	C1446.904297,504.571350 1446.904297,489.642670 1446.904297,474.518219 
	C1456.910034,474.518219 1466.306030,474.518219 1475.959961,474.518219 
	C1475.959961,544.520752 1475.959961,614.222046 1475.959961,684.252686 
	C1466.380493,684.252686 1456.968872,684.252686 1446.904297,684.252686 
	C1446.904297,629.583618 1446.904297,575.041809 1446.904297,520.000000 
z"/>
<path fill="#060606" opacity="1.000000" stroke="none" 
	d="
M473.978729,881.915771 
	C481.337891,885.556396 485.908661,891.333313 489.242371,898.735535 
	C490.161224,897.395813 490.808838,896.501221 491.405792,895.573975 
	C500.013275,882.205139 512.909546,876.624512 527.257935,880.068481 
	C539.192505,882.933044 548.098328,893.474548 548.661560,908.807861 
	C549.510254,931.913086 548.882751,955.072632 548.882751,978.521729 
	C545.591736,978.933472 542.358582,979.337891 538.449097,979.826965 
	C538.449097,977.813477 538.458313,976.054810 538.447754,974.296204 
	C538.327271,954.300476 538.288574,934.303528 537.999390,914.310181 
	C537.949707,910.876282 537.147278,907.362122 536.149719,904.048462 
	C531.361328,888.143799 513.777527,883.254639 501.209290,894.250366 
	C493.731567,900.792419 491.415283,909.427612 491.403809,918.941040 
	C491.382141,936.940674 491.391846,954.940247 491.388611,972.939880 
	C491.388306,974.736938 491.388611,976.533997 491.388611,978.513672 
	C487.642975,978.955627 484.382660,979.340332 480.611267,979.785278 
	C480.611267,976.055725 480.636230,972.596863 480.607056,969.138367 
	C480.450989,950.644775 480.325897,932.150696 480.066376,913.658569 
	C480.029388,911.023193 479.531586,908.343140 478.879303,905.777222 
	C476.898163,897.984009 473.245972,891.196594 464.768097,889.251770 
	C455.934967,887.225464 447.882019,889.318665 441.528809,896.208008 
	C436.984344,901.136108 434.019653,906.951538 433.914520,913.677734 
	C433.607269,933.336304 433.603912,952.999756 433.484283,972.661255 
	C433.473297,974.466797 433.482788,976.272461 433.482788,978.436768 
	C429.921753,978.913513 426.702026,979.344666 423.137451,979.821899 
	C423.137451,947.175110 423.137451,914.748840 423.137451,881.655212 
	C426.285736,881.275635 429.626221,880.872803 433.446533,880.412170 
	C433.446533,885.527466 433.446533,890.129639 433.446533,896.110413 
	C444.077484,881.081543 456.802032,875.147095 473.978729,881.915771 
z"/>
<path fill="#060606" opacity="1.000000" stroke="none" 
	d="
M1693.477661,881.687256 
	C1696.037231,881.063477 1698.596802,880.439697 1701.456177,879.742798 
	C1714.477051,903.208740 1727.432617,926.556946 1740.668579,950.410461 
	C1747.874146,935.870972 1754.878662,921.759033 1761.862549,907.636780 
	C1765.688965,899.899292 1769.702759,892.242920 1773.194946,884.356384 
	C1774.960449,880.369263 1777.079590,879.124390 1781.057739,880.976929 
	C1782.532715,881.663818 1784.192017,881.954590 1786.114868,882.529968 
	C1764.402588,926.427124 1742.779663,970.143494 1721.045166,1014.085510 
	C1717.524292,1013.112305 1714.235718,1012.203308 1710.383057,1011.138428 
	C1712.844116,1006.141968 1715.067383,1001.579163 1717.333496,997.037842 
	C1722.672852,986.338135 1728.111694,975.686707 1733.292847,964.911194 
	C1734.008301,963.423340 1734.186768,960.958130 1733.436523,959.591797 
	C1719.924805,934.983398 1706.233032,910.473877 1692.567505,885.950073 
	C1692.331787,885.527161 1691.944702,885.188599 1692.537109,885.896118 
	C1689.154419,887.475769 1686.334106,889.278381 1683.250854,890.145752 
	C1671.869995,893.347168 1664.162476,900.576294 1661.141846,911.753601 
	C1658.865356,920.177307 1657.512085,929.015930 1657.084106,937.735413 
	C1656.425049,951.160400 1656.910767,964.641663 1656.910767,978.417480 
	C1653.246948,978.907776 1649.993896,979.343079 1646.337646,979.832336 
	C1646.337646,947.207947 1646.337646,914.677612 1646.337646,881.654053 
	C1649.522339,881.276062 1652.918701,880.872925 1656.866211,880.404358 
	C1656.866211,886.999878 1656.866211,893.194092 1656.866211,899.849609 
	C1660.271851,895.627380 1662.978027,891.688538 1666.266357,888.317505 
	C1673.018433,881.395508 1681.570435,878.586792 1691.116211,878.671570 
	C1691.716553,878.676819 1692.308594,879.636292 1692.681274,880.609375 
	C1692.797974,881.273743 1693.137817,881.480469 1693.477661,881.687256 
z"/>
<path fill="#060606" opacity="1.000000" stroke="none" 
	d="
M1623.184692,958.271973 
	C1625.500854,956.634521 1627.523315,955.201233 1630.279175,953.248230 
	C1630.279175,957.795837 1630.359985,961.717529 1630.213623,965.630859 
	C1630.182861,966.453369 1629.500610,967.481750 1628.809814,968.015808 
	C1605.670654,985.902222 1571.834229,985.910095 1552.898560,963.810669 
	C1539.114746,947.723755 1536.778809,929.066284 1544.555908,910.053528 
	C1552.327148,891.055664 1567.709351,881.004761 1588.404663,879.815613 
	C1607.388672,878.724792 1622.515503,885.236816 1632.403687,902.808350 
	C1607.043335,917.792969 1581.908691,932.644165 1556.817383,947.469788 
	C1561.617798,960.646362 1577.512329,970.135986 1592.938721,969.533386 
	C1604.179688,969.094238 1613.873901,964.778992 1623.184692,958.271973 
M1594.736816,913.226929 
	C1601.829834,909.015747 1608.922852,904.804565 1616.042603,900.577515 
	C1607.598389,889.517334 1588.282959,886.879333 1573.421875,894.550720 
	C1557.488037,902.775818 1548.161377,922.514832 1553.088013,937.999390 
	C1566.805054,929.863708 1580.472900,921.757324 1594.736816,913.226929 
z"/>
<path fill="#060606" opacity="1.000000" stroke="none" 
	d="
M1370.496338,893.492188 
	C1390.129883,876.187500 1419.228271,874.693909 1437.043213,890.165466 
	C1440.956421,893.563721 1443.931763,898.041748 1447.694702,902.438110 
	C1421.716064,917.788696 1396.572754,932.645691 1371.450928,947.489990 
	C1376.225220,960.064087 1390.362549,969.215576 1405.459961,969.551819 
	C1420.630737,969.889709 1432.732422,962.502502 1445.002075,953.059875 
	C1445.002075,957.702148 1445.103516,961.438843 1444.933838,965.163086 
	C1444.888916,966.147156 1444.253540,967.411133 1443.476196,968.010498 
	C1420.543335,985.689453 1388.161743,985.397705 1368.834595,965.399719 
	C1351.034668,946.982056 1349.877197,912.687561 1370.496338,893.492188 
M1382.591553,898.033142 
	C1369.451660,908.143311 1365.191772,921.664612 1367.318237,938.275269 
	C1388.631348,925.600220 1409.635986,913.108582 1430.687256,900.589172 
	C1420.878540,887.912964 1399.478149,886.721924 1382.591553,898.033142 
z"/>
<path fill="#060606" opacity="1.000000" stroke="none" 
	d="
M607.120605,880.083801 
	C616.413208,879.333252 625.143188,879.518066 633.598328,882.859558 
	C643.161133,886.638733 650.629944,893.306702 655.355652,902.958862 
	C630.264709,917.785706 605.135864,932.634949 579.698303,947.666565 
	C584.082642,956.704651 590.831848,963.014404 599.925171,966.697510 
	C609.220581,970.462463 619.012573,970.942017 628.228760,967.352844 
	C636.911255,963.971558 644.968567,958.984985 653.645386,954.527649 
	C653.645386,957.825256 653.757080,961.580872 653.568237,965.321350 
	C653.519958,966.278015 652.731262,967.460815 651.927917,968.077454 
	C629.506287,985.286499 599.008240,985.052246 580.616028,968.347290 
	C564.847290,954.025208 560.478882,936.030518 565.722961,916.077332 
	C570.813538,896.708435 584.201233,885.121033 603.762878,880.753784 
	C604.735962,880.536499 605.712097,880.333130 607.120605,880.083801 
M604.033752,921.559326 
	C615.779053,914.551392 627.524353,907.543396 639.346924,900.489319 
	C629.619263,888.946045 609.705444,886.877197 594.943237,895.456604 
	C580.021484,904.128540 571.290161,923.981140 576.407959,937.939758 
	C585.426880,932.591919 594.415588,927.262024 604.033752,921.559326 
z"/>
<path fill="#060606" opacity="1.000000" stroke="none" 
	d="
M2078.285645,971.251953 
	C2060.997803,981.773621 2043.047852,984.365417 2024.575562,976.561218 
	C2001.597778,966.853577 1990.164673,942.078491 1996.234985,916.937256 
	C2001.781860,893.964722 2023.391479,878.640625 2048.722656,879.716492 
	C2065.874023,880.444885 2078.413086,887.996704 2086.454102,902.887756 
	C2061.279297,917.771729 2036.072144,932.674866 2010.550171,947.764160 
	C2018.258179,961.736694 2029.662109,969.101807 2045.287476,969.504272 
	C2060.299072,969.890930 2072.322021,962.531494 2083.715088,953.659241 
	C2086.352295,962.765808 2085.125488,966.777344 2078.285645,971.251953 
M2016.243286,932.739380 
	C2034.211792,922.036560 2052.180176,911.333740 2070.159668,900.624329 
	C2062.392578,889.480652 2042.114868,886.789124 2027.238281,894.789307 
	C2011.403320,903.304871 2001.930908,923.802124 2007.465088,937.903015 
	C2010.191162,936.282288 2012.892456,934.676392 2016.243286,932.739380 
z"/>
<path fill="#060606" opacity="1.000000" stroke="none" 
	d="
M1786.900391,938.130249 
	C1782.805054,909.798950 1800.200806,885.439758 1827.826904,880.326782 
	C1855.411255,875.221558 1881.398682,891.765625 1887.576294,918.364563 
	C1894.095947,946.437195 1876.146851,974.831482 1848.667358,979.915710 
	C1818.393799,985.516907 1791.502075,967.502808 1786.900391,938.130249 
M1851.868774,967.659424 
	C1852.778931,967.253967 1853.698486,966.867920 1854.598022,966.440308 
	C1870.454834,958.903625 1879.546875,942.388550 1877.310913,925.194092 
	C1875.075928,908.007507 1862.162231,893.993530 1845.712891,890.903564 
	C1827.792725,887.537354 1810.682007,895.431519 1802.129883,911.010864 
	C1794.540161,924.836914 1796.148682,942.726074 1806.091919,955.073425 
	C1816.877686,968.466919 1833.711182,973.265564 1851.868774,967.659424 
z"/>
<path fill="#060606" opacity="1.000000" stroke="none" 
	d="
M388.098389,889.899414 
	C416.307770,911.335022 413.836121,956.726318 382.208557,974.497375 
	C356.729980,988.813477 322.907410,978.762451 310.201294,953.000244 
	C297.306519,926.855591 308.594147,894.813171 335.264587,883.904175 
	C353.504608,876.443481 371.377869,877.908142 388.098389,889.899414 
M321.509125,910.142456 
	C321.189514,910.725281 320.848297,911.297302 320.553497,911.892456 
	C312.621948,927.902588 315.721008,946.564392 328.329742,958.748413 
	C340.974304,970.966980 360.291229,973.720886 375.436279,965.464233 
	C391.044464,956.955139 399.229065,939.491943 395.816315,921.980347 
	C392.924866,907.143860 379.911499,893.921875 365.330780,891.006165 
	C347.546570,887.449890 332.219086,893.987793 321.509125,910.142456 
z"/>
<path fill="#060606" opacity="1.000000" stroke="none" 
	d="
M1140.848877,908.841797 
	C1151.359009,887.641113 1170.986328,877.396118 1195.470459,880.053955 
	C1215.328491,882.209595 1232.625977,897.571350 1237.544800,917.419556 
	C1244.180908,944.196045 1228.815796,971.693787 1203.193726,978.895020 
	C1175.394165,986.708252 1147.264282,972.545898 1138.935791,946.235718 
	C1134.994751,933.785156 1135.505127,921.320129 1140.848877,908.841797 
M1173.950073,967.838379 
	C1174.589844,968.019226 1175.230835,968.196167 1175.869385,968.381287 
	C1192.968384,973.338806 1209.737427,967.755554 1220.197876,953.621094 
	C1229.894897,940.518250 1230.509766,922.058350 1221.696899,908.622681 
	C1211.994019,893.830200 1195.098755,887.120300 1177.813965,891.194702 
	C1162.457642,894.814514 1149.326294,909.656860 1147.946167,924.954468 
	C1146.177002,944.565430 1155.181152,959.732971 1173.950073,967.838379 
z"/>
<path fill="#050505" opacity="1.000000" stroke="none" 
	d="
M731.885986,956.000000 
	C731.885986,963.652954 731.885986,970.805847 731.885986,978.383118 
	C728.300842,978.875854 724.903992,979.342773 721.207458,979.850830 
	C721.207458,934.126465 721.207458,888.532104 721.207458,842.521179 
	C724.619263,842.137573 728.003052,841.757080 731.890015,841.320007 
	C731.890015,859.542664 731.890015,877.435486 731.890015,896.518494 
	C738.973938,887.372986 746.755005,881.448853 757.347473,879.669556 
	C777.966980,876.205933 794.936768,887.122498 796.426514,907.987549 
	C798.093201,931.329590 796.809143,954.882263 796.809143,978.548584 
	C793.699097,978.943665 790.595154,979.337891 786.992920,979.795471 
	C786.904175,977.912964 786.768127,976.177124 786.748779,974.439941 
	C786.522522,954.117859 786.858643,933.770569 785.928040,913.481262 
	C785.182922,897.236755 775.319031,888.150818 760.719299,888.275085 
	C745.867981,888.401428 732.549255,900.737244 732.065735,915.504822 
	C731.629639,928.824219 731.917419,942.167358 731.885986,956.000000 
z"/>
<path fill="#050505" opacity="1.000000" stroke="none" 
	d="
M1931.490234,891.170044 
	C1920.095947,897.722351 1914.635986,907.110107 1914.814331,920.065002 
	C1915.079956,939.371704 1914.883179,958.684753 1914.883179,978.404846 
	C1911.273193,978.888489 1907.890137,979.341736 1904.204956,979.835449 
	C1904.204956,947.186096 1904.204956,914.745972 1904.204956,881.747498 
	C1907.446045,881.324402 1910.834106,880.882141 1914.729736,880.373596 
	C1914.729736,885.527466 1914.729736,890.426208 1914.729736,896.424194 
	C1916.833252,894.058594 1918.143066,892.480347 1919.561890,891.007141 
	C1930.433228,879.718079 1943.559326,876.543579 1958.385010,880.894043 
	C1972.117310,884.923584 1979.059448,895.485840 1979.631226,908.764343 
	C1980.625610,931.856995 1979.907593,955.023376 1979.907593,978.522522 
	C1976.712646,978.927063 1973.492188,979.334839 1969.744873,979.809265 
	C1969.744873,977.527466 1969.763184,975.577576 1969.741943,973.628113 
	C1969.522949,953.475708 1970.029663,933.281128 1968.870483,913.182739 
	C1967.678467,892.512695 1951.024536,883.068726 1931.490234,891.170044 
z"/>
<path fill="#040404" opacity="1.000000" stroke="none" 
	d="
M883.398560,880.172485 
	C888.270020,879.808228 892.803528,878.934937 897.198792,879.391846 
	C913.334717,881.069397 924.745483,891.240662 925.597290,907.758728 
	C926.803589,931.150696 925.903259,954.651306 925.903259,978.490051 
	C922.826050,978.905090 919.614380,979.338257 915.863464,979.844177 
	C915.863464,975.798889 915.900452,972.002747 915.857178,968.207458 
	C915.648376,949.892944 916.129211,931.534058 914.986145,913.277283 
	C913.937012,896.520630 903.826538,887.625854 889.131592,888.295471 
	C873.901367,888.989380 861.286987,901.459778 861.066895,916.677368 
	C860.789795,935.833801 860.975525,954.996826 860.961792,974.157043 
	C860.960876,975.465881 860.961670,976.774719 860.961670,978.433777 
	C857.284119,978.917236 853.888367,979.363708 850.231445,979.844421 
	C850.231445,947.213013 850.231445,914.764160 850.231445,881.748840 
	C853.494995,881.322083 856.890564,880.878113 860.694214,880.380737 
	C860.694214,885.472839 860.694214,890.398376 860.694214,897.010681 
	C867.105652,888.442627 873.998596,882.825073 883.398560,880.172485 
z"/>
<path fill="#070707" opacity="1.000000" stroke="none" 
	d="
M274.816162,978.929810 
	C257.307800,984.854675 239.726181,980.054260 228.635468,966.249084 
	C231.174286,963.803589 233.752319,961.320251 236.588089,958.588745 
	C242.967514,965.406189 250.435440,969.946533 259.981445,970.412476 
	C272.918762,971.044006 282.086945,963.510376 281.980286,952.143982 
	C281.922058,945.939758 279.413208,941.010315 273.644592,938.528381 
	C268.637207,936.374084 263.304565,934.984192 258.145538,933.171448 
	C253.769241,931.633728 249.377518,930.115173 245.093445,928.344177 
	C227.920319,921.244995 228.488586,898.917114 238.503326,888.882935 
	C250.302063,877.061340 271.630829,875.683044 287.387909,886.209717 
	C289.021332,887.300903 290.521729,888.591187 292.393585,890.026672 
	C290.025879,893.125244 287.843719,895.981079 285.615387,898.897278 
	C277.008850,892.095032 268.010345,887.457947 256.868927,890.028503 
	C250.862747,891.414307 246.138474,894.488647 243.966599,900.568359 
	C241.453766,907.602539 243.495758,913.806396 250.377350,917.507507 
	C254.849548,919.912781 259.911499,921.242249 264.748566,922.941772 
	C268.655609,924.314514 272.729340,925.261169 276.540314,926.849731 
	C286.891815,931.164795 293.536957,938.538391 293.881042,950.203735 
	C294.237518,962.288025 288.732788,971.250183 278.294281,977.232605 
	C277.286377,977.810303 276.223297,978.291809 274.816162,978.929810 
z"/>
<path fill="#070707" opacity="1.000000" stroke="none" 
	d="
M1447.443237,882.279053 
	C1450.659790,881.357727 1453.514282,880.563477 1456.743530,879.664978 
	C1468.555298,904.893005 1480.279053,929.933289 1492.396729,955.814880 
	C1504.513062,930.011597 1516.287354,904.936829 1528.169800,879.631714 
	C1531.859497,880.593811 1535.195068,881.463501 1538.939819,882.439941 
	C1523.457520,915.135315 1508.086914,947.594788 1492.408569,980.704102 
	C1484.393311,963.895447 1476.682739,947.737061 1468.982178,931.573853 
	C1461.845825,916.594971 1454.691650,901.624390 1447.642822,886.604431 
	C1447.070801,885.385620 1447.250732,883.813843 1447.443237,882.279053 
z"/>
<path fill="#060606" opacity="1.000000" stroke="none" 
	d="
M1097.865356,931.999878 
	C1097.865356,918.556396 1097.865356,905.612915 1097.865356,892.202026 
	C1093.020020,892.202026 1088.604370,892.202026 1083.518677,892.202026 
	C1084.961304,888.367371 1085.316284,884.042786 1087.623657,882.293518 
	C1089.703613,880.716797 1093.921875,881.960938 1097.564697,881.960938 
	C1097.903198,868.757996 1097.408936,855.674805 1108.341431,846.564575 
	C1115.805786,840.344299 1124.998535,839.650940 1134.711426,840.026855 
	C1135.685425,843.064331 1136.675781,846.153198 1137.786255,849.616516 
	C1128.355469,849.877747 1118.726074,849.178162 1112.783325,857.956909 
	C1107.962280,865.078552 1108.229492,873.275513 1108.769653,881.751404 
	C1117.369507,881.751404 1125.491699,881.751404 1133.793701,881.751404 
	C1133.793701,885.306030 1133.793701,888.547180 1133.793701,892.188721 
	C1125.497681,892.188721 1117.418457,892.188721 1109.003418,892.188721 
	C1109.003418,921.001282 1109.003418,949.416016 1109.003418,978.325989 
	C1105.357422,978.845032 1101.974121,979.326660 1097.865356,979.911560 
	C1097.865356,963.994995 1097.865356,948.247498 1097.865356,931.999878 
z"/>
<path fill="#080808" opacity="1.000000" stroke="none" 
	d="
M684.171875,878.222900 
	C683.794067,881.802429 685.780823,881.780151 687.934509,881.765686 
	C695.059631,881.717712 702.185181,881.747559 709.477417,881.747559 
	C709.477417,885.363159 709.477417,888.484741 709.477417,891.964600 
	C701.286621,891.964600 693.182251,891.964600 685.187012,891.964600 
	C684.762451,892.691040 684.306824,893.105957 684.310120,893.517273 
	C684.467468,913.318176 684.193970,933.138489 685.022827,952.912476 
	C685.573181,966.040283 692.306091,970.653076 705.350525,968.695801 
	C706.943176,968.456848 708.524963,968.146179 710.007812,967.886963 
	C710.314758,968.641602 710.528625,968.938660 710.547913,969.247925 
	C711.149048,978.903503 710.690308,979.409424 700.980042,979.877930 
	C684.321899,980.681580 674.871033,971.965759 674.105896,953.707825 
	C673.332581,935.255127 673.548584,916.760986 673.337463,898.284912 
	C673.315063,896.325378 673.334473,894.365234 673.334473,892.201416 
	C668.610962,892.201416 664.463013,892.201416 659.476440,892.201416 
	C660.492676,888.583008 661.397644,885.360657 662.402832,881.781738 
	C665.958252,881.781738 669.393982,881.781738 673.332458,881.781738 
	C673.332458,875.758911 673.713501,870.094971 673.213196,864.509949 
	C672.804810,859.950623 674.471252,857.362549 678.430359,855.631592 
	C680.225220,854.846802 681.835510,853.639893 684.170837,852.239990 
	C684.170837,861.131042 684.170837,869.411743 684.171875,878.222900 
z"/>
<path fill="#070707" opacity="1.000000" stroke="none" 
	d="
M1254.816650,946.999268 
	C1254.816650,925.056030 1254.816650,903.612915 1254.816650,881.650635 
	C1258.405029,881.242371 1261.771118,880.859375 1265.721924,880.409851 
	C1265.721924,886.926514 1265.721924,892.953979 1265.721924,898.981506 
	C1274.411133,885.884338 1285.406860,877.811890 1302.091431,878.790405 
	C1300.940796,881.745789 1300.030151,884.531616 1298.754150,887.138733 
	C1298.253418,888.162354 1297.023193,889.344299 1295.976318,889.509216 
	C1276.365601,892.596924 1268.839600,906.406677 1267.156250,923.853638 
	C1265.643311,939.534180 1266.041870,955.403381 1265.710083,971.191711 
	C1265.560425,978.313538 1265.684570,978.314453 1258.513672,979.350891 
	C1257.544189,979.491028 1256.578613,979.657654 1254.816650,979.938721 
	C1254.816650,968.920715 1254.816650,958.209961 1254.816650,946.999268 
z"/>
<path fill="#010101" opacity="1.000000" stroke="none" 
	d="
M828.750122,880.898438 
	C828.972473,913.560303 828.972473,945.845215 828.972473,978.452881 
	C825.366882,978.985474 821.960022,979.488708 818.267517,980.034119 
	C818.267517,947.286438 818.267517,914.707703 818.267517,881.648743 
	C821.638550,881.278381 825.083191,880.899963 828.750122,880.898438 
z"/>
<path fill="#080808" opacity="1.000000" stroke="none" 
	d="
M821.662537,858.224792 
	C819.526367,855.898438 817.640503,853.817078 815.348206,851.287170 
	C816.628906,849.654724 817.887695,848.010376 819.189941,846.401367 
	C820.534729,844.739990 821.921753,843.112793 823.501648,841.217041 
	C826.346191,844.345032 828.986572,847.248535 831.697998,850.230103 
	C829.253479,853.176025 827.126892,855.921326 824.755676,858.435791 
	C824.303955,858.914795 822.885376,858.481995 821.662537,858.224792 
z"/>
<path fill="#E01B23" opacity="1.000000" stroke="none" 
	d="
M1094.710083,97.854401 
	C1104.760742,63.252113 1145.059082,51.265831 1171.313110,75.296883 
	C1185.717896,88.481995 1189.736206,105.701202 1183.668213,124.220917 
	C1177.839844,142.008972 1164.889160,152.348984 1146.226074,155.162613 
	C1118.790649,159.298798 1094.637939,138.814774 1093.210815,111.090164 
	C1092.992310,106.844780 1094.097534,102.531273 1094.710083,97.854401 
z"/>
<path fill="#FCFCFC" opacity="1.000000" stroke="none" 
	d="
M1002.523315,897.440125 
	C1009.809326,903.997437 1011.972961,911.915405 1009.470459,920.784119 
	C1006.680298,930.672424 999.336853,936.321899 989.700623,938.565063 
	C979.780640,940.874329 970.135803,939.757507 961.726074,933.316406 
	C948.431702,923.134033 948.733459,905.418274 962.305115,895.629272 
	C973.790039,887.345398 990.314697,887.993896 1002.523315,897.440125 
z"/>
<path fill="#FFFCFC" opacity="1.000000" stroke="none" 
	d="
M1539.603027,622.965027 
	C1540.644043,615.115662 1540.804199,607.475586 1542.972046,600.455383 
	C1547.533325,585.684387 1559.377319,577.836060 1575.126221,577.774902 
	C1591.140503,577.712708 1602.661377,585.237549 1607.447754,600.167969 
	C1612.498535,615.923218 1612.371704,631.742126 1603.916260,646.517212 
	C1596.098633,660.177917 1583.203613,665.641479 1566.911499,662.942017 
	C1554.113525,660.821472 1544.167847,650.684692 1541.161621,636.312134 
	C1540.281372,632.103882 1540.121460,627.744934 1539.603027,622.965027 
z"/>
<path fill="#FEF9F9" opacity="1.000000" stroke="none" 
	d="
M702.196533,577.000610 
	C710.340332,577.656799 718.360107,577.259705 725.698547,579.305969 
	C736.735718,582.383667 743.784180,593.118896 743.930359,604.494324 
	C720.894043,604.494324 697.859070,604.494324 674.817017,604.494324 
	C676.152771,590.702026 686.396545,580.284668 702.196533,577.000610 
z"/>
<path fill="#FFFDFC" opacity="1.000000" stroke="none" 
	d="
M1945.487793,610.826782 
	C1951.679565,584.977173 1976.210938,571.413086 1999.057495,580.866394 
	C2015.131226,587.517395 2025.254639,605.215759 2023.886353,624.272583 
	C2022.559448,642.751770 2010.060669,658.187866 1993.089722,662.306335 
	C1970.475708,667.794250 1947.086914,650.791199 1945.076416,627.152954 
	C1944.629150,621.894531 1945.235352,616.546448 1945.487793,610.826782 
z"/>
<path fill="#FFFDFC" opacity="1.000000" stroke="none" 
	d="
M990.073242,629.825623 
	C984.046570,654.616028 963.304504,667.961914 940.752808,661.941895 
	C924.201050,657.523560 912.276489,641.221985 911.621826,622.117920 
	C910.766846,597.168335 928.701050,577.664246 952.196777,577.991028 
	C972.408936,578.272217 989.739502,595.651733 990.838623,616.996399 
	C991.050415,621.109314 990.391174,625.267151 990.073242,629.825623 
z"/>
<path fill="#FFFDFD" opacity="1.000000" stroke="none" 
	d="
M230.036194,634.770264 
	C226.317825,621.084229 227.272171,608.332214 234.783417,596.505371 
	C244.272812,581.563782 260.563202,575.006470 277.494019,579.122070 
	C292.369141,582.737976 305.349579,598.118286 306.959656,614.028931 
	C308.247253,626.752625 306.086334,638.569580 297.696106,648.688049 
	C277.264587,673.327942 241.650406,666.188416 230.036194,634.770264 
z"/>
<path fill="#FFFFFF" opacity="1.000000" stroke="none" 
	d="
M1693.350830,881.480652 
	C1693.137817,881.480469 1692.797974,881.273743 1692.680420,880.988770 
	C1692.902832,880.910645 1693.223877,881.274048 1693.350830,881.480652 
z"/>
<path fill="#FBFBFB" opacity="1.000000" stroke="none" 
	d="
M1594.438721,913.438904 
	C1580.472900,921.757324 1566.805054,929.863708 1553.088013,937.999390 
	C1548.161377,922.514832 1557.488037,902.775818 1573.421875,894.550720 
	C1588.282959,886.879333 1607.598389,889.517334 1616.042603,900.577515 
	C1608.922852,904.804565 1601.829834,909.015747 1594.438721,913.438904 
z"/>
<path fill="#FBFBFB" opacity="1.000000" stroke="none" 
	d="
M1382.883301,897.821594 
	C1399.478149,886.721924 1420.878540,887.912964 1430.687256,900.589172 
	C1409.635986,913.108582 1388.631348,925.600220 1367.318237,938.275269 
	C1365.191772,921.664612 1369.451660,908.143311 1382.883301,897.821594 
z"/>
<path fill="#FAFAFA" opacity="1.000000" stroke="none" 
	d="
M603.718994,921.745728 
	C594.415588,927.262024 585.426880,932.591919 576.407959,937.939758 
	C571.290161,923.981140 580.021484,904.128540 594.943237,895.456604 
	C609.705444,886.877197 629.619263,888.946045 639.346924,900.489319 
	C627.524353,907.543396 615.779053,914.551392 603.718994,921.745728 
z"/>
<path fill="#FAFAFA" opacity="1.000000" stroke="none" 
	d="
M2015.918457,932.904907 
	C2012.892456,934.676392 2010.191162,936.282288 2007.465088,937.903015 
	C2001.930908,923.802124 2011.403320,903.304871 2027.238281,894.789307 
	C2042.114868,886.789124 2062.392578,889.480652 2070.159668,900.624329 
	C2052.180176,911.333740 2034.211792,922.036560 2015.918457,932.904907 
z"/>
<path fill="#FDFDFD" opacity="1.000000" stroke="none" 
	d="
M1851.492065,967.783691 
	C1833.711182,973.265564 1816.877686,968.466919 1806.091919,955.073425 
	C1796.148682,942.726074 1794.540161,924.836914 1802.129883,911.010864 
	C1810.682007,895.431519 1827.792725,887.537354 1845.712891,890.903564 
	C1862.162231,893.993530 1875.075928,908.007507 1877.310913,925.194092 
	C1879.546875,942.388550 1870.454834,958.903625 1854.598022,966.440308 
	C1853.698486,966.867920 1852.778931,967.253967 1851.492065,967.783691 
z"/>
<path fill="#FDFDFD" opacity="1.000000" stroke="none" 
	d="
M321.710571,909.834351 
	C332.219086,893.987793 347.546570,887.449890 365.330780,891.006165 
	C379.911499,893.921875 392.924866,907.143860 395.816315,921.980347 
	C399.229065,939.491943 391.044464,956.955139 375.436279,965.464233 
	C360.291229,973.720886 340.974304,970.966980 328.329742,958.748413 
	C315.721008,946.564392 312.621948,927.902588 320.553497,911.892456 
	C320.848297,911.297302 321.189514,910.725281 321.710571,909.834351 
z"/>
<path fill="#FDFDFD" opacity="1.000000" stroke="none" 
	d="
M1173.585938,967.685059 
	C1155.181152,959.732971 1146.177002,944.565430 1147.946167,924.954468 
	C1149.326294,909.656860 1162.457642,894.814514 1177.813965,891.194702 
	C1195.098755,887.120300 1211.994019,893.830200 1221.696899,908.622681 
	C1230.509766,922.058350 1229.894897,940.518250 1220.197876,953.621094 
	C1209.737427,967.755554 1192.968384,973.338806 1175.869385,968.381287 
	C1175.230835,968.196167 1174.589844,968.019226 1173.585938,967.685059 
z"/>
</svg>