 <svg version="1.0" xmlns="http://www.w3.org/2000/svg"  width="450.000000pt" height="196.000000pt" viewBox="0 0 450.000000 196.000000"  preserveAspectRatio="xMidYMid meet">  <g transform="translate(0.000000,196.000000) scale(0.050000,-0.050000)" fill="#ff0000" stroke="none"> <path d="M3740 3721 c0 -257 46 -391 179 -520 l94 -91 -94 -91 c-120 -117 -179 -268 -179 -460 l0 -139 100 0 100 0 0 105 c0 292 174 475 450 475 276 0 450 -189 450 -489 l0 -91 103 0 102 0 -9 165 c-11 205 -65 333 -186 446 l-89 83 78 63 c134 107 190 253 198 518 l7 225 -99 0 -100 0 -9 -205 c-16 -342 -156 -496 -450 -495 -297 2 -446 179 -446 535 l0 165 -100 0 -100 0 0 -199z"/> <path d="M4293 3657 c-48 -27 -89 -128 -78 -187 33 -170 271 -195 338 -37 66 159 -111 311 -260 224z"/> <path d="M4120 2060 c-31 -31 -40 -67 -40 -160 0 -115 -2 -120 -50 -120 -40 0 -50 -10 -50 -50 0 -40 10 -50 52 -50 l52 0 -7 -200 -7 -200 61 0 60 0 -8 200 -8 200 74 0 c103 0 99 86 -4 96 -61 6 -65 12 -65 81 0 97 40 153 97 138 37 -10 43 -3 43 47 0 74 -132 86 -200 18z"/> <path d="M5580 1690 l0 -410 55 0 55 0 4 410 5 410 -60 0 -59 0 0 -410z"/> <path d="M500 1905 l0 -145 -190 0 -190 0 0 140 0 140 -60 0 -60 0 0 -380 0 -380 60 0 60 0 0 186 0 187 190 -1 190 -1 0 -186 0 -185 65 0 65 0 -4 383 -4 383 -61 2 -61 2 0 -145z"/> <path d="M4904 2017 c-129 -63 -224 -215 -224 -355 1 -478 734 -566 764 -92 l6 100 -155 6 -155 6 0 -61 c0 -60 2 -61 99 -61 l99 0 -21 -61 c-61 -175 -350 -170 -458 7 -155 254 161 571 390 391 l54 -43 43 43 c115 115 -251 215 -442 120z"/> <path d="M909 1760 c-256 -127 -163 -500 125 -500 293 0 364 396 92 513 -86 36 -121 34 -217 -13z m230 -133 c56 -71 53 -157 -8 -218 -98 -98 -251 -25 -251 120 0 144 171 209 259 98z"/> <path d="M2106 1771 c-139 -62 -106 -205 64 -280 109 -49 132 -81 86 -127 -36 -36 -91 -29 -136 16 -41 41 -120 28 -120 -19 0 -41 108 -101 182 -101 246 0 292 210 67 310 -83 36 -110 58 -105 85 8 43 87 57 128 23 24 -20 36 -18 63 9 74 74 -106 140 -229 84z"/> <path d="M2628 1772 c-182 -82 -209 -369 -43 -473 119 -75 395 -5 395 102 0 47 -95 51 -147 7 -90 -78 -221 -44 -237 62 -6 38 4 39 189 33 l195 -7 0 61 c0 177 -186 290 -352 215z m188 -103 c84 -60 56 -89 -86 -89 -138 0 -155 15 -90 80 48 48 115 51 176 9z"/> <path d="M3586 1787 c-120 -26 -221 -205 -185 -330 67 -234 403 -267 507 -49 100 211 -86 429 -322 379z m194 -162 c119 -150 -75 -351 -214 -222 -60 57 -63 180 -6 237 61 61 167 53 220 -15z"/> <path d="M5946 1772 c-144 -65 -178 -324 -58 -444 77 -77 188 -92 268 -37 24 18 44 22 44 10 0 -11 27 -21 60 -21 l60 0 0 250 0 250 -60 0 c-42 0 -60 -10 -60 -33 0 -31 -3 -31 -36 0 -53 47 -144 57 -218 25z m219 -128 c50 -43 47 -192 -5 -244 -97 -97 -220 -23 -220 131 0 145 119 204 225 113z"/> <path d="M6644 1750 c-61 -51 -64 -52 -64 -12 0 31 -13 42 -50 42 l-50 0 0 -250 0 -250 60 0 60 0 0 179 c0 162 4 182 44 210 117 82 166 20 166 -212 l0 -177 61 0 62 0 -9 115 c-12 165 23 281 90 298 97 24 115 -8 122 -220 l5 -193 60 0 59 0 0 217 c0 287 -101 380 -280 259 -67 -46 -71 -46 -100 -11 -53 64 -163 67 -236 5z"/> <path d="M7530 1763 c-255 -120 -164 -503 120 -503 208 0 337 220 231 394 -79 130 -217 173 -351 109z m229 -136 c120 -153 -55 -344 -206 -226 -68 53 -74 178 -13 239 60 60 167 53 219 -13z"/> <path d="M8833 1759 c-44 -35 -53 -37 -53 -10 0 21 -18 31 -55 31 l-56 0 -3 -250 -4 -250 59 0 59 0 0 137 c0 214 50 308 146 272 43 -17 90 69 51 93 -44 28 -88 21 -144 -23z"/> <path d="M1420 1601 c0 -263 54 -341 238 -341 184 0 242 83 242 348 l0 172 -60 0 -60 0 0 -179 c0 -195 -21 -241 -113 -241 -113 0 -127 25 -127 231 l0 189 -60 0 -60 0 0 -179z"/> <path d="M8040 1599 c0 -268 50 -339 240 -339 180 0 225 62 236 325 l9 195 -63 0 -62 0 0 -179 c0 -195 -21 -241 -113 -241 -113 0 -127 25 -127 231 l0 189 -60 0 -60 0 0 -181z"/> <path d="M2776 665 c-15 -37 8 -525 25 -525 11 0 19 62 19 137 0 147 31 203 113 203 68 0 87 -41 87 -194 0 -116 6 -146 30 -146 36 0 43 223 10 309 -27 72 -108 100 -182 63 l-58 -29 0 99 c0 84 -24 130 -44 83z"/> <path d="M4260 640 c-22 -22 -40 -58 -40 -80 0 -22 -9 -40 -20 -40 -11 0 -20 -14 -20 -31 0 -17 9 -26 20 -19 13 8 20 -50 20 -159 0 -139 6 -171 30 -171 24 0 30 32 30 170 0 168 1 170 50 170 28 0 50 9 50 20 0 11 -22 20 -50 20 -37 0 -50 11 -50 40 0 24 21 50 50 64 28 12 50 30 50 39 0 32 -80 17 -120 -23z"/> <path d="M2605 617 c-14 -14 -25 -40 -25 -59 0 -19 -11 -39 -25 -45 -19 -8 -19 -14 3 -29 18 -13 28 -66 30 -157 3 -163 16 -187 93 -187 69 0 80 34 14 44 -75 10 -80 296 -6 296 28 0 51 9 51 20 0 11 -22 20 -49 20 -39 0 -50 11 -55 61 -5 49 -11 57 -31 36z"/> <path d="M980 526 c-141 -51 -125 -170 30 -220 45 -14 60 -32 60 -68 0 -51 -74 -65 -155 -29 -25 11 -35 6 -35 -14 0 -39 105 -82 159 -65 126 40 119 172 -12 222 -71 27 -88 43 -83 76 7 48 83 68 125 33 20 -17 31 -17 41 0 26 41 -68 87 -130 65z"/> <path d="M1752 526 c-6 -7 -39 -11 -72 -10 l-60 1 0 -188 c0 -155 5 -189 30 -189 24 0 30 30 30 146 0 155 18 194 92 194 57 0 68 -34 68 -202 0 -109 6 -138 30 -138 24 0 30 30 30 148 0 160 22 200 104 189 43 -7 46 -17 52 -172 4 -129 12 -165 35 -165 35 0 42 258 9 321 -43 79 -200 89 -200 13 0 -11 -16 -7 -35 10 -43 37 -97 57 -113 42z"/> <path d="M3375 511 c-30 -16 -55 -20 -55 -10 0 11 -11 19 -25 19 -18 0 -26 -53 -27 -190 -2 -147 4 -190 25 -190 20 0 27 36 27 139 0 150 27 201 107 201 75 0 93 -38 93 -194 0 -121 6 -146 32 -146 44 0 33 304 -12 347 -48 46 -106 54 -165 24z"/> <path d="M3783 521 c-158 -19 -200 -93 -128 -226 30 -56 44 -64 102 -59 119 12 180 -79 103 -156 -52 -52 -129 -51 -182 2 -27 27 -49 35 -61 23 -31 -31 78 -105 153 -105 137 0 222 148 135 235 -33 33 -33 37 0 70 40 40 46 116 11 151 -16 16 -17 24 -2 24 12 0 27 14 33 30 13 33 11 33 -164 11z m73 -65 c60 -60 13 -156 -76 -156 -64 0 -100 34 -100 93 0 74 122 117 176 63z"/> <path d="M4950 516 c-22 -12 -47 -32 -55 -44 -9 -14 -15 -8 -15 13 0 19 -11 35 -25 35 -18 0 -25 -52 -25 -190 0 -140 6 -190 25 -190 17 0 25 35 25 109 0 131 28 199 92 228 26 12 48 31 48 43 0 26 -20 25 -70 -4z"/> <path d="M6433 499 c-44 -35 -53 -36 -53 -10 0 17 -9 31 -20 31 -12 0 -20 -77 -20 -190 0 -143 6 -190 26 -190 19 0 27 36 27 129 0 246 100 279 213 72 l76 -140 -41 -79 c-45 -88 -51 -122 -22 -122 15 0 261 484 261 513 0 43 -53 -20 -107 -127 l-68 -135 -65 130 c-76 151 -61 131 -112 147 -27 8 -60 -2 -95 -29z"/> <path d="M7435 511 c-30 -16 -55 -20 -55 -10 0 11 -9 19 -20 19 -12 0 -20 -77 -20 -190 0 -113 8 -190 20 -190 11 0 20 59 20 137 0 147 31 203 113 203 68 0 87 -41 87 -194 0 -116 6 -146 30 -146 47 0 42 281 -5 336 -49 57 -106 68 -170 35z"/> <path d="M1253 497 c-61 -35 -94 -140 -71 -224 50 -182 297 -195 371 -20 74 178 -129 344 -300 244z m218 -66 c93 -93 32 -251 -95 -251 -73 0 -156 80 -156 150 0 67 83 150 150 150 29 0 74 -22 101 -49z"/> <path d="M2246 490 c-180 -126 -19 -426 188 -347 42 16 79 45 83 64 6 34 3 34 -54 4 -77 -39 -122 -39 -179 0 -58 41 -50 51 106 138 72 40 130 80 130 89 0 73 -192 110 -274 52z m190 -27 c19 -12 -9 -38 -95 -89 -121 -72 -121 -72 -121 -25 0 87 141 161 216 114z"/> <path d="M3140 330 c0 -156 5 -190 30 -190 25 0 30 34 30 190 0 156 -5 190 -30 190 -25 0 -30 -34 -30 -190z"/> <path d="M4432 458 c-170 -201 111 -457 291 -265 71 76 66 214 -9 279 -86 74 -214 68 -282 -14z m235 -19 c105 -83 44 -259 -89 -259 -85 0 -146 62 -146 150 0 134 128 193 235 109z"/> <path d="M5278 462 c-155 -156 24 -400 230 -314 40 16 72 44 72 61 0 38 -19 38 -69 0 -66 -50 -211 -24 -211 37 0 13 65 61 143 107 l142 82 -43 43 c-65 65 -189 58 -264 -16z m210 -12 c-2 -21 -211 -154 -223 -142 -13 14 38 120 71 145 38 30 155 28 152 -3z"/> <path d="M5580 503 c0 -43 166 -365 179 -350 48 52 176 367 150 367 -17 0 -57 -62 -93 -144 l-65 -143 -65 143 c-56 124 -106 184 -106 127z"/> <path d="M5992 458 c-60 -71 -70 -184 -21 -253 70 -100 286 -99 306 3 6 35 4 35 -40 4 -61 -43 -142 -41 -198 5 l-46 37 143 84 c156 91 162 99 107 149 -64 58 -191 43 -251 -29z m205 4 c20 -12 7 -29 -50 -63 -42 -26 -97 -59 -122 -75 -42 -26 -45 -25 -45 15 0 93 140 172 217 123z"/> <path d="M6938 462 c-79 -80 -79 -177 0 -266 172 -193 457 64 290 262 -73 87 -204 89 -290 4z m211 6 c49 -19 94 -120 79 -178 -26 -105 -172 -146 -248 -70 -113 113 19 305 169 248z"/> <path d="M7775 498 c-145 -84 -100 -326 67 -368 66 -16 198 37 198 79 0 29 -6 29 -59 2 -81 -42 -148 -39 -191 9 -20 22 -33 43 -28 47 4 4 69 41 143 82 74 41 135 81 135 90 0 66 -183 107 -265 59z m178 -48 c3 -11 -43 -49 -103 -84 l-110 -64 0 47 c0 89 189 178 213 101z"/> </g> </svg> 